<svg version="1.1" id="Layer_1" xmlns="http://www.w3.org/2000/svg" xmlns:xlink="http://www.w3.org/1999/xlink" x="0px" y="0px"
	 width="100%" viewBox="0 0 500 500" enable-background="new 0 0 500 500" xml:space="preserve">
<path fill="#000000" opacity="1.000000" stroke="none" 
	d="
M263.000000,501.000000 
	C175.333359,501.000000 88.166710,501.000000 1.000047,501.000000 
	C1.000031,334.333405 1.000031,167.666794 1.000016,1.000136 
	C167.666565,1.000091 334.333130,1.000091 500.999756,1.000045 
	C500.999847,167.666519 500.999847,334.333038 500.999939,500.999786 
	C421.833344,501.000000 342.666656,501.000000 263.000000,501.000000 
M344.094818,330.026947 
	C340.065308,330.073639 336.035797,330.120300 331.076691,330.037140 
	C324.719757,330.086975 318.362823,330.136810 311.125824,330.050293 
	C308.752594,330.091583 306.379364,330.132843 303.098511,330.041931 
	C299.734650,330.084656 296.370819,330.127380 292.092621,330.042755 
	C288.398254,330.083618 284.703888,330.124451 280.107117,330.041656 
	C277.070892,330.083893 274.034637,330.126129 270.088959,330.053192 
	C266.729675,330.092102 263.370392,330.131042 259.142303,330.049896 
	C257.098328,330.084900 255.054352,330.119904 252.078278,330.038635 
	C245.056732,330.089355 238.035187,330.140076 230.102341,330.073395 
	C226.739700,330.104767 223.377045,330.136108 219.202103,330.075378 
	C207.986267,331.047455 202.031693,337.325684 201.970398,348.418274 
	C201.912674,358.864594 201.957932,369.311707 201.996124,379.758331 
	C202.035538,390.545410 207.980652,396.803009 219.926239,397.846863 
	C223.296173,397.780212 226.666107,397.713593 230.960938,397.764923 
	C237.645706,397.610107 244.330460,397.455261 251.776230,397.504425 
	C253.845795,397.374908 255.915359,397.245361 258.895813,397.246063 
	C262.262756,397.188568 265.629700,397.131073 269.896484,397.217896 
	C272.930023,397.155579 275.963593,397.093262 279.890045,397.167786 
	C282.594208,397.100220 285.298370,397.032623 288.908966,397.104584 
	C292.273987,397.047852 295.639038,396.991119 299.911316,397.076538 
	C303.276642,397.017944 306.641998,396.959351 310.905640,397.045532 
	C313.938538,396.992676 316.971466,396.939850 320.673523,397.015747 
	C321.123352,396.968109 321.573212,396.920471 322.667236,397.012543 
	C323.101990,396.968201 323.536774,396.923889 324.886353,397.024200 
	C328.582062,396.973206 332.277740,396.922241 336.900909,397.002258 
	C341.594055,396.956421 346.287231,396.910583 351.890503,396.999542 
	C355.254272,396.952759 358.618011,396.906006 362.908112,396.994598 
	C367.594299,396.941925 372.280518,396.889252 377.894867,396.968658 
	C382.590637,396.925385 387.286438,396.882111 392.809784,396.968079 
	C394.199615,396.920532 395.589447,396.872986 397.772125,396.964569 
	C406.288422,396.382385 414.064453,388.748413 414.161987,380.420746 
	C414.298340,368.781616 414.272125,357.135376 414.018341,345.498657 
	C413.849701,337.765106 408.273132,331.790771 400.602905,330.188843 
	C395.730835,330.492035 390.858734,330.795197 385.066071,330.936646 
	C379.766754,330.930847 374.467407,330.925049 368.644653,330.215027 
	C364.087158,330.190979 359.529663,330.166931 354.079193,330.000336 
	C351.057404,330.055450 348.035645,330.110565 344.094818,330.026947 
M165.059937,390.053314 
	C165.059937,390.053314 165.124863,390.127808 165.741531,389.825317 
	C173.449921,381.533691 177.136002,371.750885 175.948868,360.461792 
	C174.974213,351.192993 172.207474,342.628143 163.790070,336.331909 
	C162.601227,335.182892 161.412384,334.033844 159.899506,332.340546 
	C158.971298,331.870789 158.043091,331.401031 156.677368,330.386078 
	C154.466675,329.545837 152.255981,328.705597 149.564240,327.384216 
	C148.024002,327.000458 146.483780,326.616669 144.056732,326.064697 
	C141.043335,326.101440 138.029922,326.138153 134.212692,326.039246 
	C131.467331,326.669983 128.721970,327.300720 125.252899,327.965271 
	C123.173134,328.990143 121.093361,330.015015 118.368286,331.210632 
	C116.519783,332.697205 114.671280,334.183746 112.210533,335.967621 
	C110.059036,338.607086 107.907539,341.246521 105.248062,344.339600 
	C98.174904,356.843689 98.047539,369.402832 105.135429,382.683075 
	C107.762146,385.777954 110.388863,388.872833 113.373116,392.521057 
	C115.187462,393.781647 117.001808,395.042236 119.340645,396.752808 
	C122.226967,397.836456 125.113289,398.920135 128.757095,400.157166 
	C130.503082,400.449280 132.249069,400.741394 134.814972,401.222900 
	C136.206924,401.176300 137.598862,401.129700 139.842484,401.229004 
	C141.562714,401.112335 143.282928,400.995636 145.760269,400.971252 
	C148.330978,400.046753 150.901703,399.122223 154.129013,398.103790 
	C155.816574,397.102844 157.504135,396.101868 159.641251,394.938232 
	C159.886230,394.708252 160.019989,394.425659 160.677414,393.950562 
	C161.805191,393.017456 162.932983,392.084351 164.592957,390.952972 
	C164.773834,390.631897 164.954712,390.310852 165.059937,390.053314 
M344.086792,118.283051 
	C336.571960,131.696060 336.424957,145.035141 344.703552,158.959290 
	C347.493408,161.919876 350.283234,164.880463 353.484283,168.347717 
	C355.331970,169.462982 357.179657,170.578262 359.590820,172.161377 
	C362.083862,173.010818 364.576904,173.860275 367.842041,174.931396 
	C371.144867,175.171158 374.447662,175.410919 378.655457,175.707809 
	C381.462097,175.194702 384.268768,174.681580 387.729279,173.890869 
	C389.525360,172.946533 391.321411,172.002182 393.828979,171.082657 
	C395.573517,170.063522 397.318054,169.044403 399.665192,167.836761 
	C400.530029,166.941925 401.394897,166.047089 402.848083,164.852661 
	C417.637787,149.527252 417.773132,126.113686 402.995514,111.397926 
	C402.681274,111.215897 402.367065,111.033867 401.747223,110.300262 
	C400.841339,109.835068 399.935425,109.369881 398.858032,108.322304 
	C398.323761,108.173920 397.789459,108.025536 397.126312,107.194298 
	C395.206207,106.082626 393.286133,104.970947 390.837433,103.322296 
	C388.896027,102.941292 386.954590,102.560287 384.250549,101.981087 
	C382.495331,101.617035 380.740082,101.252983 378.148895,100.667885 
	C376.432861,100.781555 374.716858,100.895218 372.223083,100.886139 
	C370.481537,101.252983 368.739960,101.619835 366.348602,101.887016 
	C365.525360,102.139259 364.702087,102.391510 363.168823,102.779633 
	C361.012482,103.918388 358.856110,105.057137 356.017883,106.359100 
	C355.035217,106.980293 354.052582,107.601479 352.473511,108.497231 
	C349.828918,111.597458 347.184296,114.697685 344.086792,118.283051 
M156.320831,103.064056 
	C155.902130,103.099396 155.483414,103.134743 154.259338,103.043846 
	C153.175781,103.082062 152.092224,103.120270 150.081100,103.048462 
	C145.391861,103.093597 140.702637,103.138733 135.084671,103.063065 
	C130.060806,103.100655 125.036949,103.138237 119.118050,103.062569 
	C116.415886,103.090057 113.713715,103.117554 110.110023,103.042847 
	C108.616959,103.023026 107.123306,102.965675 105.630936,102.989403 
	C94.733658,103.162666 87.995094,109.862450 87.950981,120.724747 
	C87.899094,133.501785 87.929291,146.279510 87.996513,159.056549 
	C88.036934,166.738754 91.669998,172.462921 98.783859,174.616028 
	C102.632431,175.780869 106.922081,175.488358 111.930206,175.934647 
	C115.624100,175.901199 119.317986,175.867752 123.941620,175.925674 
	C129.298386,175.894394 134.655136,175.863129 140.935867,175.927292 
	C145.297363,175.891174 149.658844,175.855072 154.950272,175.918961 
	C162.304031,175.879593 169.657806,175.840225 177.885712,175.888168 
	C179.931152,175.813156 181.976593,175.738144 184.933823,175.792206 
	C188.636414,175.687012 192.339020,175.581802 196.955032,175.644699 
	C201.638931,175.494537 206.322845,175.344376 211.788513,175.405884 
	C215.190842,175.312988 218.593170,175.220078 222.915985,175.322952 
	C228.945969,175.224564 234.975937,175.126190 241.751251,175.172211 
	C242.501724,175.103256 243.252197,175.034302 244.924347,175.140060 
	C250.617844,175.068329 256.311340,174.996613 262.667969,175.076004 
	C263.115845,175.026413 263.563690,174.976837 264.793823,175.109940 
	C265.857574,175.050552 266.921326,174.991180 268.901703,175.089539 
	C272.928223,175.027985 276.954742,174.966431 281.906097,175.060226 
	C286.933685,175.001236 291.961273,174.942245 297.910645,175.030472 
	C302.640442,174.703629 307.370270,174.376785 312.849854,174.066940 
	C320.460358,172.006500 324.954559,166.387054 324.984039,158.676544 
	C325.034149,145.578568 325.070435,132.479767 324.977112,119.382286 
	C324.926361,112.254692 321.610016,106.606400 315.039185,104.150253 
	C310.742828,102.544281 305.714417,102.896622 300.107147,102.189865 
	C296.409332,102.301979 292.711548,102.414093 288.100739,102.330757 
	C283.750763,102.478165 279.400818,102.625572 274.301697,102.505630 
	C272.226868,102.616028 270.152008,102.726425 267.303101,102.590897 
	C260.535004,102.728104 253.766891,102.865311 246.157455,102.811897 
	C244.437927,102.875969 242.718399,102.940033 240.097183,102.822311 
	C236.727020,102.895493 233.356873,102.968666 229.063873,102.883842 
	C223.377640,102.957268 217.691391,103.030685 211.084274,102.942909 
	C206.392731,103.002930 201.701202,103.062950 196.092545,102.971725 
	C192.064682,103.025238 188.036819,103.078751 183.116501,102.997543 
	C180.414017,103.040321 177.711517,103.083099 174.083984,102.991348 
	C169.390930,103.045219 164.697876,103.099083 159.243942,103.035233 
	C158.477692,103.078377 157.711441,103.121529 156.320831,103.064056 
M166.497314,286.616882 
	C174.329865,286.535950 182.162292,286.399261 189.994980,286.382782 
	C259.326385,286.236877 328.657806,286.115021 397.989227,285.978638 
	C409.680756,285.955627 414.255646,281.351349 414.239380,269.608032 
	C414.220673,256.108307 413.700714,242.588959 414.276489,229.115646 
	C414.684570,219.567062 407.599487,213.622345 398.983795,213.715530 
	C356.989929,214.169708 314.988770,213.894073 272.990753,214.041077 
	C217.659332,214.234741 162.328384,214.571213 106.997368,214.872040 
	C96.571388,214.928711 91.913925,219.714310 91.922333,230.204666 
	C91.933281,243.870865 91.970352,257.537079 91.978287,271.203278 
	C91.984375,281.680847 97.127068,286.978027 107.501144,286.944183 
	C126.833450,286.881165 146.165482,286.735168 166.497314,286.616882 
z"/>
<path fill="#6CA0CC" opacity="1.000000" stroke="none" 
	d="
M165.997467,286.620300 
	C146.165482,286.735168 126.833450,286.881165 107.501144,286.944183 
	C97.127068,286.978027 91.984375,281.680847 91.978287,271.203278 
	C91.970352,257.537079 91.933281,243.870865 91.922333,230.204666 
	C91.913925,219.714310 96.571388,214.928711 106.997368,214.872040 
	C162.328384,214.571213 217.659332,214.234741 272.990753,214.041077 
	C314.988770,213.894073 356.989929,214.169708 398.983795,213.715530 
	C407.599487,213.622345 414.684570,219.567062 414.276489,229.115646 
	C413.700714,242.588959 414.220673,256.108307 414.239380,269.608032 
	C414.255646,281.351349 409.680756,285.955627 397.989227,285.978638 
	C328.657806,286.115021 259.326385,286.236877 189.994980,286.382782 
	C182.162292,286.399261 174.329865,286.535950 165.997467,286.620300 
z"/>
<path fill="#6A9BC5" opacity="1.000000" stroke="none" 
	d="
M301.013916,102.371811 
	C305.714417,102.896622 310.742828,102.544281 315.039185,104.150253 
	C321.610016,106.606400 324.926361,112.254692 324.977112,119.382286 
	C325.070435,132.479767 325.034149,145.578568 324.984039,158.676544 
	C324.954559,166.387054 320.460358,172.006500 312.013062,174.048660 
	C309.677155,174.018997 308.177856,174.018112 306.678894,173.994370 
	C300.645203,173.898773 299.661346,172.681137 300.517517,166.798264 
	C300.851349,164.504288 300.979919,162.162094 300.984619,159.841415 
	C301.023254,140.684937 301.010834,121.528358 301.013916,102.371811 
z"/>
<path fill="#2A3A46" opacity="1.000000" stroke="none" 
	d="
M111.012756,175.853271 
	C106.922081,175.488358 102.632431,175.780869 98.783859,174.616028 
	C91.669998,172.462921 88.036934,166.738754 87.996513,159.056549 
	C87.929291,146.279510 87.899094,133.501785 87.950981,120.724747 
	C87.995094,109.862450 94.733658,103.162666 105.630936,102.989403 
	C107.123306,102.965675 108.616959,103.023026 110.421692,103.403198 
	C109.980011,105.814613 108.579613,107.864006 108.574257,109.917023 
	C108.525383,128.675949 108.975677,147.440292 108.626030,166.190842 
	C108.555878,169.952591 108.935608,172.938034 111.012756,175.853271 
z"/>
<path fill="#334859" opacity="1.000000" stroke="none" 
	d="
M231.013641,330.190765 
	C238.035187,330.140076 245.056732,330.089355 252.413086,330.396332 
	C251.309250,333.028748 248.668121,335.283691 248.630325,337.581451 
	C248.411713,350.869873 248.768280,364.169159 249.021439,377.463013 
	C249.087524,380.932831 250.480240,384.728210 249.469238,387.779480 
	C248.187393,391.648163 248.928650,394.381561 251.015228,397.300415 
	C244.330460,397.455261 237.645706,397.610107 230.446899,397.314758 
	C229.623032,394.076355 229.059982,391.289459 229.045105,388.499695 
	C228.959335,372.417389 228.891083,356.333008 229.094376,340.252808 
	C229.136871,336.891235 230.343475,333.544403 231.013641,330.190765 
z"/>
<path fill="#5781A3" opacity="1.000000" stroke="none" 
	d="
M246.998779,103.002518 
	C253.766891,102.865311 260.535004,102.728104 267.375061,102.938721 
	C263.287811,103.765930 261.477112,105.974602 261.810852,110.255547 
	C262.106049,114.041756 261.990295,117.862801 261.993622,121.668518 
	C262.009186,139.420639 262.003143,157.172775 262.004822,174.924896 
	C256.311340,174.996613 250.617844,175.068329 244.464233,174.616577 
	C244.142929,171.112350 244.414856,168.130859 244.398392,165.150955 
	C244.308456,148.873032 244.109268,132.595627 244.055695,116.317703 
	C244.048309,114.074776 245.732025,110.941360 244.759033,109.748032 
	C241.491684,105.740799 244.472351,104.624664 246.998779,103.002518 
z"/>
<path fill="#608EB3" opacity="1.000000" stroke="none" 
	d="
M391.982208,396.838837 
	C387.286438,396.882111 382.590637,396.925385 377.074615,396.729095 
	C374.277161,396.308167 372.189545,396.451508 370.361969,395.830078 
	C369.164520,395.422882 367.519409,393.942108 367.477234,392.886169 
	C366.848358,377.143341 366.497498,361.389771 365.977661,345.642090 
	C365.816925,340.772858 365.346771,335.913849 365.433380,331.040619 
	C366.955017,330.993805 368.061554,330.956512 369.168091,330.919250 
	C374.467407,330.925049 379.766754,330.930847 385.391602,331.327881 
	C386.020477,333.925446 386.600616,336.134064 386.583008,338.337830 
	C386.449615,355.006561 386.349823,371.678497 385.890106,388.339783 
	C385.757935,393.130463 386.552094,396.428497 391.982208,396.838837 
z"/>
<path fill="#374F63" opacity="1.000000" stroke="none" 
	d="
M154.020325,175.818970 
	C149.658844,175.855072 145.297363,175.891174 140.345581,175.584290 
	C136.828873,172.622253 134.191162,169.939178 136.696243,165.559998 
	C136.971848,165.078201 136.656555,164.265259 136.634491,163.605270 
	C136.097702,147.548737 135.472000,131.494278 135.092514,115.434006 
	C134.996246,111.360161 135.685226,107.267746 136.013397,103.183868 
	C140.702637,103.138733 145.391861,103.093597 150.459274,103.466774 
	C150.685455,104.533463 150.393402,105.183701 150.402023,105.829926 
	C150.592545,120.087563 150.893417,134.344193 150.997604,148.602295 
	C151.042191,154.702026 151.047958,160.843948 150.383301,166.891083 
	C149.989761,170.471558 150.643829,172.725967 154.017334,174.306732 
	C154.018494,175.012451 154.019409,175.415710 154.020325,175.818970 
z"/>
<path fill="#334859" opacity="1.000000" stroke="none" 
	d="
M135.549042,103.123466 
	C135.685226,107.267746 134.996246,111.360161 135.092514,115.434006 
	C135.472000,131.494278 136.097702,147.548737 136.634491,163.605270 
	C136.656555,164.265259 136.971848,165.078201 136.696243,165.559998 
	C134.191162,169.939178 136.828873,172.622253 139.883591,175.536575 
	C134.655136,175.863129 129.298386,175.894394 123.381569,175.519699 
	C122.043381,170.105148 120.770256,165.114471 120.588387,160.084335 
	C120.188683,149.029343 120.352776,137.954315 120.263420,126.887634 
	C120.199600,118.983543 120.097885,111.079750 120.013077,103.175827 
	C125.036949,103.138237 130.060806,103.100655 135.549042,103.123466 
z"/>
<path fill="#6A9BC5" opacity="1.000000" stroke="none" 
	d="
M401.029510,330.903992 
	C408.273132,331.790771 413.849701,337.765106 414.018341,345.498657 
	C414.272125,357.135376 414.298340,368.781616 414.161987,380.420746 
	C414.064453,388.748413 406.288422,396.382385 397.219971,396.536072 
	C396.662659,392.335083 396.653412,388.562531 396.653046,384.790009 
	C396.651459,367.452667 396.652344,350.115326 396.652344,332.496765 
	C397.654938,332.131927 399.342224,331.517944 401.029510,330.903992 
z"/>
<path fill="#496A86" opacity="1.000000" stroke="none" 
	d="
M211.006744,175.194214 
	C206.322845,175.344376 201.638931,175.494537 196.508148,175.207199 
	C196.539505,172.541367 197.436584,170.311981 197.431030,168.084869 
	C197.376953,146.430679 197.171768,124.776886 197.009659,103.122978 
	C201.701202,103.062950 206.392731,103.002930 211.465088,103.377068 
	C211.932541,106.870354 212.178070,109.934837 212.075226,112.987579 
	C211.796173,121.271744 211.167877,129.548019 211.048477,137.832764 
	C210.869003,150.284180 211.004929,162.740173 211.006744,175.194214 
z"/>
<path fill="#608EB3" opacity="1.000000" stroke="none" 
	d="
M296.988861,174.883240 
	C291.961273,174.942245 286.933685,175.001236 281.152832,174.798981 
	C274.770508,172.556442 274.634094,167.498856 274.623505,162.991440 
	C274.576416,142.919067 274.876343,122.845879 275.050842,102.772980 
	C279.400818,102.625572 283.750763,102.478165 288.557434,102.863022 
	C289.009552,114.045631 288.955566,124.696251 289.014832,135.346252 
	C289.069153,145.113678 289.167755,154.882187 289.392426,164.646896 
	C289.578491,172.734070 289.672516,172.731903 296.988861,174.883240 
z"/>
<path fill="#3E586E" opacity="1.000000" stroke="none" 
	d="
M154.485291,175.868958 
	C154.019409,175.415710 154.018494,175.012451 154.423721,174.306320 
	C156.569427,173.887314 158.308990,173.771179 160.004822,173.657959 
	C160.004822,149.748367 160.004822,126.450661 160.004822,103.152954 
	C164.697876,103.099083 169.390930,103.045219 174.464752,103.392105 
	C174.110214,107.651237 172.804062,111.500237 172.740448,115.369659 
	C172.491974,130.481583 172.579315,145.600311 172.665909,160.715790 
	C172.696777,166.103867 172.183777,171.749954 177.011566,175.800858 
	C169.657806,175.840225 162.304031,175.879593 154.485291,175.868958 
z"/>
<path fill="#5C87AB" opacity="1.000000" stroke="none" 
	d="
M274.676270,102.639305 
	C274.876343,122.845879 274.576416,142.919067 274.623505,162.991440 
	C274.634094,167.498856 274.770508,172.556442 280.690430,174.721313 
	C276.954742,174.966431 272.928223,175.027985 268.185364,174.838974 
	C266.316528,174.701355 265.164062,174.814301 264.011566,174.927246 
	C263.563690,174.976837 263.115845,175.026413 262.336395,175.000458 
	C262.003143,157.172775 262.009186,139.420639 261.993622,121.668518 
	C261.990295,117.862801 262.106049,114.041756 261.810852,110.255547 
	C261.477112,105.974602 263.287811,103.765930 267.762085,103.061691 
	C270.152008,102.726425 272.226868,102.616028 274.676270,102.639305 
z"/>
<path fill="#45647E" opacity="1.000000" stroke="none" 
	d="
M196.551102,103.047348 
	C197.171768,124.776886 197.376953,146.430679 197.431030,168.084869 
	C197.436584,170.311981 196.539505,172.541367 196.051437,175.123154 
	C192.339020,175.581802 188.636414,175.687012 184.446808,175.395111 
	C184.289612,169.910950 184.902267,164.823151 184.889175,159.736969 
	C184.863525,149.769913 184.441757,139.804565 184.273178,129.836975 
	C184.122635,120.936470 184.092316,112.033913 184.008957,103.132263 
	C188.036819,103.078751 192.064682,103.025238 196.551102,103.047348 
z"/>
<path fill="#4E718E" opacity="1.000000" stroke="none" 
	d="
M211.397629,175.300049 
	C211.004929,162.740173 210.869003,150.284180 211.048477,137.832764 
	C211.167877,129.548019 211.796173,121.271744 212.075226,112.987579 
	C212.178070,109.934837 211.932541,106.870354 211.925537,103.457672 
	C217.691391,103.030685 223.377640,102.957268 229.213959,103.150024 
	C227.007950,104.435577 224.651871,105.454956 222.295792,106.474342 
	C222.797501,106.860329 223.299210,107.246315 223.800919,107.632301 
	C223.932907,109.401367 224.126755,111.168694 224.176590,112.940071 
	C224.213867,114.264755 224.011307,115.594559 224.008545,116.922272 
	C223.990936,125.410522 224.493454,133.935944 223.859604,142.376648 
	C223.226837,150.802872 226.107132,159.165253 223.875702,167.543732 
	C223.205536,170.059982 222.619858,172.598740 221.995483,175.127182 
	C218.593170,175.220078 215.190842,175.312988 211.397629,175.300049 
z"/>
<path fill="#2F4251" opacity="1.000000" stroke="none" 
	d="
M230.557983,330.132080 
	C230.343475,333.544403 229.136871,336.891235 229.094376,340.252808 
	C228.891083,356.333008 228.959335,372.417389 229.045105,388.499695 
	C229.059982,391.289459 229.623032,394.076355 229.984467,397.255768 
	C226.666107,397.713593 223.296173,397.780212 219.322479,397.470581 
	C217.812851,392.108948 216.259659,387.140900 216.125717,382.134857 
	C215.761902,368.536621 216.233871,354.916016 215.867020,341.317932 
	C215.743896,336.754089 215.999496,332.918915 220.014404,330.167480 
	C223.377045,330.136108 226.739700,330.104767 230.557983,330.132080 
z"/>
<path fill="#2A3A46" opacity="1.000000" stroke="none" 
	d="
M219.608246,330.121429 
	C215.999496,332.918915 215.743896,336.754089 215.867020,341.317932 
	C216.233871,354.916016 215.761902,368.536621 216.125717,382.134857 
	C216.259659,387.140900 217.812851,392.108948 218.867554,397.417450 
	C207.980652,396.803009 202.035538,390.545410 201.996124,379.758331 
	C201.957932,369.311707 201.912674,358.864594 201.970398,348.418274 
	C202.031693,337.325684 207.986267,331.047455 219.608246,330.121429 
z"/>
<path fill="#6494BC" opacity="1.000000" stroke="none" 
	d="
M297.449768,174.956848 
	C289.672516,172.731903 289.578491,172.734070 289.392426,164.646896 
	C289.167755,154.882187 289.069153,145.113678 289.014832,135.346252 
	C288.955566,124.696251 289.009552,114.045631 289.013947,102.960739 
	C292.711548,102.414093 296.409332,102.301979 300.560547,102.280838 
	C301.010834,121.528358 301.023254,140.684937 300.984619,159.841415 
	C300.979919,162.162094 300.851349,164.504288 300.517517,166.798264 
	C299.661346,172.681137 300.645203,173.898773 306.678894,173.994370 
	C308.177856,174.018112 309.677155,174.018997 311.638184,174.040161 
	C307.370270,174.376785 302.640442,174.703629 297.449768,174.956848 
z"/>
<path fill="#2F4251" opacity="1.000000" stroke="none" 
	d="
M119.565567,103.119202 
	C120.097885,111.079750 120.199600,118.983543 120.263420,126.887634 
	C120.352776,137.954315 120.188683,149.029343 120.588387,160.084335 
	C120.770256,165.114471 122.043381,170.105148 122.916702,175.474014 
	C119.317986,175.867752 115.624100,175.901199 111.471481,175.893967 
	C108.935608,172.938034 108.555878,169.952591 108.626030,166.190842 
	C108.975677,147.440292 108.525383,128.675949 108.574257,109.917023 
	C108.579613,107.864006 109.980011,105.814613 110.872452,103.454300 
	C113.713715,103.117554 116.415886,103.090057 119.565567,103.119202 
z"/>
<path fill="#547B9C" opacity="1.000000" stroke="none" 
	d="
M350.980377,396.864746 
	C346.287231,396.910583 341.594055,396.956421 336.137085,396.757568 
	C331.617065,395.567047 331.245941,392.428772 331.179230,389.451263 
	C330.989899,381.005829 331.271759,372.546112 330.944580,364.108429 
	C330.516876,353.079071 329.683075,342.065460 329.394470,331.035614 
	C330.507172,331.018677 331.249451,331.011200 332.304352,331.151367 
	C336.081635,331.214172 339.546265,331.129333 342.945587,331.385620 
	C343.232483,333.801392 343.881042,335.874786 343.889893,337.950897 
	C343.957886,353.913727 344.223236,369.886505 343.756714,385.836578 
	C343.499908,394.616089 342.915802,394.598999 350.980377,396.864746 
z"/>
<path fill="#5781A3" opacity="1.000000" stroke="none" 
	d="
M351.435425,396.932129 
	C342.915802,394.598999 343.499908,394.616089 343.756714,385.836578 
	C344.223236,369.886505 343.957886,353.913727 343.889893,337.950897 
	C343.881042,335.874786 343.232483,333.801392 343.275513,331.374268 
	C344.111145,331.014618 344.551483,331.007446 345.293427,331.178833 
	C348.720734,330.952576 351.846436,330.547729 354.972168,330.142883 
	C359.529663,330.166931 364.087158,330.190979 368.906372,330.567139 
	C368.061554,330.956512 366.955017,330.993805 364.997772,331.027008 
	C360.903229,331.473236 357.659393,331.923553 355.431366,332.232849 
	C355.996918,336.870209 356.677032,340.177338 356.730377,343.494568 
	C356.788849,347.131500 355.991547,350.782379 356.052246,354.419067 
	C356.249298,366.224976 356.873657,378.026886 356.888367,389.830902 
	C356.893402,393.852722 358.062256,396.117371 361.981781,396.859253 
	C358.618011,396.906006 355.254272,396.952759 351.435425,396.932129 
z"/>
<path fill="#425F77" opacity="1.000000" stroke="none" 
	d="
M183.562729,103.064903 
	C184.092316,112.033913 184.122635,120.936470 184.273178,129.836975 
	C184.441757,139.804565 184.863525,149.769913 184.889175,159.736969 
	C184.902267,164.823151 184.289612,169.910950 183.990906,175.330566 
	C181.976593,175.738144 179.931152,175.813156 177.448639,175.844513 
	C172.183777,171.749954 172.696777,166.103867 172.665909,160.715790 
	C172.579315,145.600311 172.491974,130.481583 172.740448,115.369659 
	C172.804062,111.500237 174.110214,107.651237 174.927277,103.459366 
	C177.711517,103.083099 180.414017,103.040321 183.562729,103.064903 
z"/>
<path fill="#4F7492" opacity="1.000000" stroke="none" 
	d="
M329.024017,331.045074 
	C329.683075,342.065460 330.516876,353.079071 330.944580,364.108429 
	C331.271759,372.546112 330.989899,381.005829 331.179230,389.451263 
	C331.245941,392.428772 331.617065,395.567047 335.673340,396.692078 
	C332.277740,396.922241 328.582062,396.973206 324.250671,396.828491 
	C323.084351,396.712799 322.553711,396.792816 322.023041,396.872864 
	C321.573212,396.920471 321.123352,396.968109 320.326965,396.558960 
	C319.507935,392.200226 318.713684,388.305878 318.620850,384.394928 
	C318.287231,370.337982 318.099640,356.275818 318.036438,342.214813 
	C317.994812,332.952301 319.727631,331.335114 329.024017,331.045074 
z"/>
<path fill="#4F7492" opacity="1.000000" stroke="none" 
	d="
M222.455734,175.225067 
	C222.619858,172.598740 223.205536,170.059982 223.875702,167.543732 
	C226.107132,159.165253 223.226837,150.802872 223.859604,142.376648 
	C224.493454,133.935944 223.990936,125.410522 224.008545,116.922272 
	C224.011307,115.594559 224.213867,114.264755 224.176590,112.940071 
	C224.126755,111.168694 223.932907,109.401367 223.800919,107.632301 
	C223.299210,107.246315 222.797501,106.860329 222.295792,106.474342 
	C224.651871,105.454956 227.007950,104.435577 229.675369,103.229019 
	C233.356873,102.968666 236.727020,102.895493 240.236267,103.108582 
	C238.391907,104.735741 234.785950,105.967888 234.687637,107.435112 
	C234.037231,117.140411 233.995682,126.896851 234.039474,136.635361 
	C234.080582,145.775269 234.878448,154.926819 234.582550,164.048569 
	C234.333832,171.716110 234.372589,172.612320 241.005920,175.027817 
	C234.975937,175.126190 228.945969,175.224564 222.455734,175.225067 
z"/>
<path fill="#45647E" opacity="1.000000" stroke="none" 
	d="
M293.006958,330.170074 
	C296.370819,330.127380 299.734650,330.084656 303.374756,330.409912 
	C301.502350,332.308807 298.806213,332.857849 298.883942,336.770447 
	C299.188202,352.084320 298.984894,367.407867 299.041565,382.727570 
	C299.049255,384.809143 299.656982,386.891022 299.637146,388.969452 
	C299.611816,391.626190 299.231415,394.279572 299.004059,396.934387 
	C295.639038,396.991119 292.273987,397.047852 288.428680,396.670471 
	C288.176025,393.482910 288.619965,390.727570 288.595398,387.976410 
	C288.458984,372.714844 288.449615,357.445068 287.863800,342.198547 
	C287.665100,337.028259 287.312469,332.501007 293.006958,330.170074 
z"/>
<path fill="#3C566B" opacity="1.000000" stroke="none" 
	d="
M268.996643,397.073578 
	C265.629700,397.131073 262.262756,397.188568 258.445129,396.740051 
	C257.996399,390.489685 257.999695,384.745331 257.999908,379.000946 
	C258.000397,366.753998 257.836212,354.503632 258.091370,342.261993 
	C258.175568,338.219757 259.340363,334.200012 260.011108,330.169983 
	C263.370392,330.131042 266.729675,330.092102 270.434631,330.468628 
	C270.186737,333.582275 269.099548,336.276672 269.078735,338.979279 
	C268.929749,358.343109 268.997650,377.708618 268.996643,397.073578 
z"/>
<path fill="#547B9C" opacity="1.000000" stroke="none" 
	d="
M241.378586,175.100006 
	C234.372589,172.612320 234.333832,171.716110 234.582550,164.048569 
	C234.878448,154.926819 234.080582,145.775269 234.039474,136.635361 
	C233.995682,126.896851 234.037231,117.140411 234.687637,107.435112 
	C234.785950,105.967888 238.391907,104.735741 240.687119,103.199478 
	C242.718399,102.940033 244.437927,102.875969 246.578125,102.907211 
	C244.472351,104.624664 241.491684,105.740799 244.759033,109.748032 
	C245.732025,110.941360 244.048309,114.074776 244.055695,116.317703 
	C244.109268,132.595627 244.308456,148.873032 244.398392,165.150955 
	C244.414856,168.130859 244.142929,171.112350 244.003403,174.529236 
	C243.252197,175.034302 242.501724,175.103256 241.378586,175.100006 
z"/>
<path fill="#6494BC" opacity="1.000000" stroke="none" 
	d="
M400.816223,330.546417 
	C399.342224,331.517944 397.654938,332.131927 396.652344,332.496765 
	C396.652344,350.115326 396.651459,367.452667 396.653046,384.790009 
	C396.653412,388.562531 396.662659,392.335083 396.823547,396.466492 
	C395.589447,396.872986 394.199615,396.920532 392.395996,396.903442 
	C386.552094,396.428497 385.757935,393.130463 385.890106,388.339783 
	C386.349823,371.678497 386.449615,355.006561 386.583008,338.337830 
	C386.600616,336.134064 386.020477,333.925446 385.851929,331.408722 
	C390.858734,330.795197 395.730835,330.492035 400.816223,330.546417 
z"/>
<path fill="#496A86" opacity="1.000000" stroke="none" 
	d="
M299.457703,397.005463 
	C299.231415,394.279572 299.611816,391.626190 299.637146,388.969452 
	C299.656982,386.891022 299.049255,384.809143 299.041565,382.727570 
	C298.984894,367.407867 299.188202,352.084320 298.883942,336.770447 
	C298.806213,332.857849 301.502350,332.308807 303.828583,330.476013 
	C306.379364,330.132843 308.752594,330.091583 311.419556,330.414429 
	C306.759827,333.493317 308.955902,337.980896 309.018768,341.888367 
	C309.313934,360.226379 309.671814,378.563416 310.007324,396.900757 
	C306.641998,396.959351 303.276642,397.017944 299.457703,397.005463 
z"/>
<path fill="#3E586E" opacity="1.000000" stroke="none" 
	d="
M269.446564,397.145752 
	C268.997650,377.708618 268.929749,358.343109 269.078735,338.979279 
	C269.099548,336.276672 270.186737,333.582275 270.889343,330.526215 
	C274.034637,330.126129 277.070892,330.083893 280.411041,330.443481 
	C280.142395,333.203644 279.120972,335.553375 279.075653,337.921753 
	C278.888611,347.697968 278.997559,357.479858 278.997528,367.259644 
	C278.997528,377.183411 278.997284,387.107208 278.997131,397.030945 
	C275.963593,397.093262 272.930023,397.155579 269.446564,397.145752 
z"/>
<path fill="#5C87AB" opacity="1.000000" stroke="none" 
	d="
M362.444946,396.926941 
	C358.062256,396.117371 356.893402,393.852722 356.888367,389.830902 
	C356.873657,378.026886 356.249298,366.224976 356.052246,354.419067 
	C355.991547,350.782379 356.788849,347.131500 356.730377,343.494568 
	C356.677032,340.177338 355.996918,336.870209 355.431366,332.232849 
	C357.659393,331.923553 360.903229,331.473236 364.582672,331.036530 
	C365.346771,335.913849 365.816925,340.772858 365.977661,345.642090 
	C366.497498,361.389771 366.848358,377.143341 367.477234,392.886169 
	C367.519409,393.942108 369.164520,395.422882 370.361969,395.830078 
	C372.189545,396.451508 374.277161,396.308167 376.610535,396.663055 
	C372.280518,396.889252 367.594299,396.941925 362.444946,396.926941 
z"/>
<path fill="#4E718E" opacity="1.000000" stroke="none" 
	d="
M310.456482,396.973145 
	C309.671814,378.563416 309.313934,360.226379 309.018768,341.888367 
	C308.955902,337.980896 306.759827,333.493317 311.859619,330.482605 
	C318.362823,330.136810 324.719757,330.086975 331.537811,330.311218 
	C331.998932,330.585327 331.991730,331.003723 331.991730,331.003723 
	C331.249451,331.011200 330.507172,331.018677 329.394470,331.035614 
	C319.727631,331.335114 317.994812,332.952301 318.036438,342.214813 
	C318.099640,356.275818 318.287231,370.337982 318.620850,384.394928 
	C318.713684,388.305878 319.507935,392.200226 319.992371,396.494568 
	C316.971466,396.939850 313.938538,396.992676 310.456482,396.973145 
z"/>
<path fill="#3C566B" opacity="1.000000" stroke="none" 
	d="
M159.624390,103.094093 
	C160.004822,126.450661 160.004822,149.748367 160.004822,173.657959 
	C158.308990,173.771179 156.569427,173.887314 154.423477,174.003860 
	C150.643829,172.725967 149.989761,170.471558 150.383301,166.891083 
	C151.047958,160.843948 151.042191,154.702026 150.997604,148.602295 
	C150.893417,134.344193 150.592545,120.087563 150.402023,105.829926 
	C150.393402,105.183701 150.685455,104.533463 150.923065,103.521790 
	C152.092224,103.120270 153.175781,103.082062 154.836319,103.219788 
	C155.923935,103.318710 156.434555,103.241699 156.945190,103.164680 
	C157.711441,103.121529 158.477692,103.078377 159.624390,103.094093 
z"/>
<path fill="#425F77" opacity="1.000000" stroke="none" 
	d="
M279.443604,397.099365 
	C278.997284,387.107208 278.997528,377.183411 278.997528,367.259644 
	C278.997559,357.479858 278.888611,347.697968 279.075653,337.921753 
	C279.120972,335.553375 280.142395,333.203644 280.862244,330.505310 
	C284.703888,330.124451 288.398254,330.083618 292.549805,330.106415 
	C287.312469,332.501007 287.665100,337.028259 287.863800,342.198547 
	C288.449615,357.445068 288.458984,372.714844 288.595398,387.976410 
	C288.619965,390.727570 288.176025,393.482910 287.975464,396.600708 
	C285.298370,397.032623 282.594208,397.100220 279.443604,397.099365 
z"/>
<path fill="#374F63" opacity="1.000000" stroke="none" 
	d="
M259.576721,330.109924 
	C259.340363,334.200012 258.175568,338.219757 258.091370,342.261993 
	C257.836212,354.503632 258.000397,366.753998 257.999908,379.000946 
	C257.999695,384.745331 257.996399,390.489685 257.989685,396.674927 
	C255.915359,397.245361 253.845795,397.374908 251.395721,397.402405 
	C248.928650,394.381561 248.187393,391.648163 249.469238,387.779480 
	C250.480240,384.728210 249.087524,380.932831 249.021439,377.463013 
	C248.768280,364.169159 248.411713,350.869873 248.630325,337.581451 
	C248.668121,335.283691 251.309250,333.028748 252.879120,330.454468 
	C255.054352,330.119904 257.098328,330.084900 259.576721,330.109924 
z"/>
<path fill="#6494BC" opacity="1.000000" stroke="none" 
	d="
M403.153931,111.938217 
	C417.773132,126.113686 417.637787,149.527252 402.304504,164.822205 
	C401.436859,164.243408 400.832642,163.695877 400.831085,163.146637 
	C400.809601,155.592743 401.125702,148.029312 400.850861,140.486755 
	C400.466949,129.951263 399.657104,119.431297 399.029541,108.904686 
	C399.935425,109.369881 400.841339,109.835068 402.051208,110.788078 
	C402.621460,111.496666 402.887695,111.717438 403.153931,111.938217 
z"/>
<path fill="#3C566B" opacity="1.000000" stroke="none" 
	d="
M119.013596,331.039886 
	C121.093361,330.015015 123.173134,328.990143 125.591187,328.309448 
	C125.497627,330.238525 124.644730,331.839691 124.705170,333.405640 
	C125.002762,341.116364 125.548584,348.817444 125.994858,356.522583 
	C126.292145,361.655334 126.595825,366.787964 126.848969,371.923004 
	C127.172363,378.483063 127.459633,385.044983 127.738205,391.607147 
	C127.856964,394.404663 127.914345,397.204834 127.999619,400.003784 
	C125.113289,398.920135 122.226967,397.836456 119.198730,396.179230 
	C119.318863,387.991638 119.833534,380.376129 119.787994,372.763977 
	C119.704758,358.854889 119.290047,344.947815 119.013596,331.039886 
z"/>
<path fill="#6494BC" opacity="1.000000" stroke="none" 
	d="
M164.026276,336.910706 
	C172.207474,342.628143 174.974213,351.192993 175.948868,360.461792 
	C177.136002,371.750885 173.449921,381.533691 165.455872,389.650330 
	C164.590363,387.143890 163.528427,384.814575 163.517990,382.480560 
	C163.481689,374.359955 163.870178,366.238556 163.981155,358.115875 
	C164.077713,351.048584 164.017319,343.979187 164.026276,336.910706 
z"/>
<path fill="#425F77" opacity="1.000000" stroke="none" 
	d="
M128.378357,400.080475 
	C127.914345,397.204834 127.856964,394.404663 127.738205,391.607147 
	C127.459633,385.044983 127.172363,378.483063 126.848969,371.923004 
	C126.595825,366.787964 126.292145,361.655334 125.994858,356.522583 
	C125.548584,348.817444 125.002762,341.116364 124.705170,333.405640 
	C124.644730,331.839691 125.497627,330.238525 125.953033,328.292542 
	C128.721970,327.300720 131.467331,326.669983 134.450516,326.419617 
	C133.794373,329.150269 132.117798,331.505188 132.131546,333.850189 
	C132.231735,350.950439 132.619110,368.049957 133.035690,385.146790 
	C133.164841,390.447021 133.664841,395.738220 133.995056,401.033508 
	C132.249069,400.741394 130.503082,400.449280 128.378357,400.080475 
z"/>
<path fill="#496A86" opacity="1.000000" stroke="none" 
	d="
M134.405014,401.128235 
	C133.664841,395.738220 133.164841,390.447021 133.035690,385.146790 
	C132.619110,368.049957 132.231735,350.950439 132.131546,333.850189 
	C132.117798,331.505188 133.794373,329.150269 134.852432,326.487427 
	C138.029922,326.138153 141.043335,326.101440 144.233124,326.302002 
	C143.608444,326.704651 142.807404,326.870026 141.618317,327.068451 
	C137.385193,327.766418 138.003815,330.822601 138.035309,333.369904 
	C138.314224,355.941467 138.662796,378.512146 138.990814,401.083099 
	C137.598862,401.129700 136.206924,401.176300 134.405014,401.128235 
z"/>
<path fill="#4F7492" opacity="1.000000" stroke="none" 
	d="
M387.075409,174.168457 
	C384.268768,174.681580 381.462097,175.194702 378.272308,175.270508 
	C377.921234,174.558868 377.953278,174.284515 378.026672,173.590607 
	C378.379242,169.866379 378.947510,166.562683 378.959778,163.256897 
	C379.036957,142.467834 378.990479,121.678307 378.984863,100.888931 
	C380.740082,101.252983 382.495331,101.617035 384.595032,102.451866 
	C384.722656,104.715858 384.290283,106.513527 384.327179,108.301506 
	C384.469177,115.182404 384.904358,122.058929 384.966278,128.939453 
	C385.078094,141.357742 384.881714,153.779785 385.095642,166.195404 
	C385.141632,168.863647 386.384094,171.511307 387.075409,174.168457 
z"/>
<path fill="#5781A3" opacity="1.000000" stroke="none" 
	d="
M150.045303,327.865326 
	C152.255981,328.705597 154.466675,329.545837 156.601700,330.889160 
	C155.685944,334.842804 154.118851,338.295685 154.130203,341.743439 
	C154.182419,357.600800 154.758179,373.455780 154.941299,389.313965 
	C154.978790,392.560181 156.383224,394.193726 159.191696,395.100922 
	C157.504135,396.101868 155.816574,397.102844 153.381378,398.074158 
	C151.433197,396.537750 149.231354,395.061432 149.184509,393.519623 
	C148.614853,374.776947 148.262573,356.025391 148.125504,337.274139 
	C148.102615,334.142700 149.372681,331.001831 150.045303,327.865326 
z"/>
<path fill="#5781A3" opacity="1.000000" stroke="none" 
	d="
M391.366028,103.859268 
	C393.286133,104.970947 395.206207,106.082626 396.853973,107.592789 
	C396.044617,109.345253 395.039368,110.699989 395.041565,112.053093 
	C395.069641,129.453979 395.337189,146.854919 395.287628,164.255096 
	C395.278809,167.338379 396.547821,168.026062 399.062561,168.025269 
	C397.318054,169.044403 395.573517,170.063522 393.101868,171.026825 
	C387.618256,170.263245 389.848022,166.709976 389.778259,164.268036 
	C389.236938,145.327118 388.749054,126.383904 388.471954,107.438080 
	C388.454681,106.259506 390.356873,105.052856 391.366028,103.859268 
z"/>
<path fill="#496A86" opacity="1.000000" stroke="none" 
	d="
M378.566895,100.778412 
	C378.990479,121.678307 379.036957,142.467834 378.959778,163.256897 
	C378.947510,166.562683 378.379242,169.866379 377.651611,173.580170 
	C376.029144,172.994461 373.838593,172.059555 373.773773,170.995224 
	C373.282043,162.919769 373.079193,154.819778 373.028625,146.725922 
	C372.933441,131.487457 373.000946,116.247955 373.000824,101.008881 
	C374.716858,100.895218 376.432861,100.781555 378.566895,100.778412 
z"/>
<path fill="#374F63" opacity="1.000000" stroke="none" 
	d="
M353.069946,108.222672 
	C354.052582,107.601479 355.035217,106.980293 356.414368,106.777763 
	C357.208069,113.820679 357.720215,120.440475 357.976746,127.070168 
	C358.413513,138.354965 358.715729,149.645264 359.017792,160.934784 
	C359.113678,164.518555 359.029236,168.107147 359.027344,171.693542 
	C357.179657,170.578262 355.331970,169.462982 353.256042,167.722610 
	C352.683990,163.363693 352.260101,159.635025 352.020203,155.894547 
	C351.807770,152.582336 351.740356,149.257492 351.712982,145.937363 
	C351.629608,135.828171 351.496918,125.717392 351.615417,115.609947 
	C351.644348,113.142181 352.561279,110.684822 353.069946,108.222672 
z"/>
<path fill="#374F63" opacity="1.000000" stroke="none" 
	d="
M118.690941,331.125244 
	C119.290047,344.947815 119.704758,358.854889 119.787994,372.763977 
	C119.833534,380.376129 119.318863,387.991638 118.936485,395.954224 
	C117.001808,395.042236 115.187462,393.781647 113.193855,391.827393 
	C113.010361,386.199219 113.018661,381.264648 112.999458,376.330200 
	C112.946732,362.776886 112.882469,349.223602 112.822769,335.670319 
	C114.671280,334.183746 116.519783,332.697205 118.690941,331.125244 
z"/>
<path fill="#4F7492" opacity="1.000000" stroke="none" 
	d="
M149.804779,327.624756 
	C149.372681,331.001831 148.102615,334.142700 148.125504,337.274139 
	C148.262573,356.025391 148.614853,374.776947 149.184509,393.519623 
	C149.231354,395.061432 151.433197,396.537750 153.053070,398.121094 
	C150.901703,399.122223 148.330978,400.046753 145.383392,400.533325 
	C144.677948,396.514648 144.169891,392.939697 144.053040,389.352020 
	C143.630676,376.385193 143.383881,363.412720 142.982895,350.445129 
	C142.741501,342.639282 142.337341,334.838470 142.006348,327.035400 
	C142.807404,326.870026 143.608444,326.704651 144.676529,326.386078 
	C146.483780,326.616669 148.024002,327.000458 149.804779,327.624756 
z"/>
<path fill="#45647E" opacity="1.000000" stroke="none" 
	d="
M372.611938,100.947510 
	C373.000946,116.247955 372.933441,131.487457 373.028625,146.725922 
	C373.079193,154.819778 373.282043,162.919769 373.773773,170.995224 
	C373.838593,172.059555 376.029144,172.994461 377.610260,173.999741 
	C377.953278,174.284515 377.921234,174.558868 377.819824,175.241959 
	C374.447662,175.410919 371.144867,175.171158 367.480957,174.639282 
	C367.119873,174.347168 367.139343,173.981689 367.411743,173.730957 
	C368.093201,171.107010 368.870483,168.728821 368.838318,166.361618 
	C368.759888,160.587860 368.178467,154.822495 368.028656,149.047806 
	C367.621704,133.362411 367.333618,117.673927 366.998413,101.986679 
	C368.739960,101.619835 370.481537,101.252983 372.611938,100.947510 
z"/>
<path fill="#4E718E" opacity="1.000000" stroke="none" 
	d="
M141.618317,327.068451 
	C142.337341,334.838470 142.741501,342.639282 142.982895,350.445129 
	C143.383881,363.412720 143.630676,376.385193 144.053040,389.352020 
	C144.169891,392.939697 144.677948,396.514648 145.004822,400.487183 
	C143.282928,400.995636 141.562714,401.112335 139.416656,401.156067 
	C138.662796,378.512146 138.314224,355.941467 138.035309,333.369904 
	C138.003815,330.822601 137.385193,327.766418 141.618317,327.068451 
z"/>
<path fill="#3C566B" opacity="1.000000" stroke="none" 
	d="
M367.139343,173.981689 
	C367.139343,173.981689 367.119873,174.347168 367.094910,174.528442 
	C364.576904,173.860275 362.083862,173.010818 359.309082,171.927460 
	C359.029236,168.107147 359.113678,164.518555 359.017792,160.934784 
	C358.715729,149.645264 358.413513,138.354965 357.976746,127.070168 
	C357.720215,120.440475 357.208069,113.820679 356.755310,106.696159 
	C358.856110,105.057137 361.012482,103.918388 363.548370,103.177521 
	C363.619781,108.042618 363.005432,112.513420 363.057739,116.976402 
	C363.258453,134.093475 363.578003,151.211182 364.140533,168.319199 
	C364.203583,170.237503 366.095520,172.095657 367.139343,173.981689 
z"/>
<path fill="#2F4251" opacity="1.000000" stroke="none" 
	d="
M352.771729,108.359955 
	C352.561279,110.684822 351.644348,113.142181 351.615417,115.609947 
	C351.496918,125.717392 351.629608,135.828171 351.712982,145.937363 
	C351.740356,149.257492 351.807770,152.582336 352.020203,155.894547 
	C352.260101,159.635025 352.683990,163.363693 353.050446,167.469284 
	C350.283234,164.880463 347.493408,161.919876 344.872742,158.313629 
	C345.263702,157.057800 345.691650,156.442307 345.676025,155.838287 
	C345.476624,148.114838 345.208008,140.393204 344.968994,132.670731 
	C344.815552,127.713440 344.682129,122.755539 344.539703,117.797913 
	C347.184296,114.697685 349.828918,111.597458 352.771729,108.359955 
z"/>
<path fill="#2F4251" opacity="1.000000" stroke="none" 
	d="
M112.516647,335.818970 
	C112.882469,349.223602 112.946732,362.776886 112.999458,376.330200 
	C113.018661,381.264648 113.010361,386.199219 113.015091,391.550720 
	C110.388863,388.872833 107.762146,385.777954 105.344467,382.103455 
	C106.033524,379.493591 106.952278,377.455475 106.916199,375.434448 
	C106.774261,367.484589 106.325836,359.540283 106.004517,351.593384 
	C105.900665,349.025116 105.837715,346.455170 105.756042,343.885986 
	C107.907539,341.246521 110.059036,338.607086 112.516647,335.818970 
z"/>
<path fill="#425F77" opacity="1.000000" stroke="none" 
	d="
M367.411743,173.730957 
	C366.095520,172.095657 364.203583,170.237503 364.140533,168.319199 
	C363.578003,151.211182 363.258453,134.093475 363.057739,116.976402 
	C363.005432,112.513420 363.619781,108.042618 363.903381,103.109581 
	C364.702087,102.391510 365.525360,102.139259 366.673523,101.936844 
	C367.333618,117.673927 367.621704,133.362411 368.028656,149.047806 
	C368.178467,154.822495 368.759888,160.587860 368.838318,166.361618 
	C368.870483,168.728821 368.093201,171.107010 367.411743,173.730957 
z"/>
<path fill="#5C87AB" opacity="1.000000" stroke="none" 
	d="
M399.363892,167.931015 
	C396.547821,168.026062 395.278809,167.338379 395.287628,164.255096 
	C395.337189,146.854919 395.069641,129.453979 395.041565,112.053093 
	C395.039368,110.699989 396.044617,109.345253 396.918396,107.934219 
	C397.789459,108.025536 398.323761,108.173920 398.943787,108.613495 
	C399.657104,119.431297 400.466949,129.951263 400.850861,140.486755 
	C401.125702,148.029312 400.809601,155.592743 400.831085,163.146637 
	C400.832642,163.695877 401.436859,164.243408 402.010315,164.972000 
	C401.394897,166.047089 400.530029,166.941925 399.363892,167.931015 
z"/>
<path fill="#547B9C" opacity="1.000000" stroke="none" 
	d="
M391.101746,103.590782 
	C390.356873,105.052856 388.454681,106.259506 388.471954,107.438080 
	C388.749054,126.383904 389.236938,145.327118 389.778259,164.268036 
	C389.848022,166.709976 387.618256,170.263245 392.746124,171.014404 
	C391.321411,172.002182 389.525360,172.946533 387.402344,174.029663 
	C386.384094,171.511307 385.141632,168.863647 385.095642,166.195404 
	C384.881714,153.779785 385.078094,141.357742 384.966278,128.939453 
	C384.904358,122.058929 384.469177,115.182404 384.327179,108.301506 
	C384.290283,106.513527 384.722656,104.715858 384.976318,102.550964 
	C386.954590,102.560287 388.896027,102.941292 391.101746,103.590782 
z"/>
<path fill="#5C87AB" opacity="1.000000" stroke="none" 
	d="
M159.416473,395.019592 
	C156.383224,394.193726 154.978790,392.560181 154.941299,389.313965 
	C154.758179,373.455780 154.182419,357.600800 154.130203,341.743439 
	C154.118851,338.295685 155.685944,334.842804 156.820450,331.161774 
	C158.043091,331.401031 158.971298,331.870789 159.775558,332.824768 
	C159.348648,334.516785 158.759598,335.730865 158.785995,336.931396 
	C159.140427,353.045074 159.589951,369.156677 159.991333,385.269409 
	C160.064529,388.208344 160.028275,391.150024 160.042542,394.090424 
	C160.019989,394.425659 159.886230,394.708252 159.416473,395.019592 
z"/>
<path fill="#608EB3" opacity="1.000000" stroke="none" 
	d="
M160.359985,394.020508 
	C160.028275,391.150024 160.064529,388.208344 159.991333,385.269409 
	C159.589951,369.156677 159.140427,353.045074 158.785995,336.931396 
	C158.759598,335.730865 159.348648,334.516785 159.937576,333.096924 
	C161.412384,334.033844 162.601227,335.182892 163.908173,336.621307 
	C164.017319,343.979187 164.077713,351.048584 163.981155,358.115875 
	C163.870178,366.238556 163.481689,374.359955 163.517990,382.480560 
	C163.528427,384.814575 164.590363,387.143890 165.147522,389.801575 
	C165.124863,390.127808 165.059937,390.053314 164.911591,390.209412 
	C164.529099,390.627411 164.294922,390.889313 164.060760,391.151245 
	C162.932983,392.084351 161.805191,393.017456 160.359985,394.020508 
z"/>
<path fill="#2A3A46" opacity="1.000000" stroke="none" 
	d="
M105.502060,344.112793 
	C105.837715,346.455170 105.900665,349.025116 106.004517,351.593384 
	C106.325836,359.540283 106.774261,367.484589 106.916199,375.434448 
	C106.952278,377.455475 106.033524,379.493591 105.251419,381.770752 
	C98.047539,369.402832 98.174904,356.843689 105.502060,344.112793 
z"/>
<path fill="#2A3A46" opacity="1.000000" stroke="none" 
	d="
M344.313232,118.040482 
	C344.682129,122.755539 344.815552,127.713440 344.968994,132.670731 
	C345.208008,140.393204 345.476624,148.114838 345.676025,155.838287 
	C345.691650,156.442307 345.263702,157.057800 344.765137,157.979889 
	C336.424957,145.035141 336.571960,131.696060 344.313232,118.040482 
z"/>
<path fill="#4F7492" opacity="1.000000" stroke="none" 
	d="
M332.304352,331.151367 
	C331.991730,331.003723 331.998932,330.585327 332.002625,330.376160 
	C336.035797,330.120300 340.065308,330.073639 344.548523,330.304962 
	C345.002258,330.582977 344.991852,331.000275 344.991852,331.000275 
	C344.551483,331.007446 344.111145,331.014618 343.340851,331.033142 
	C339.546265,331.129333 336.081635,331.214172 332.304352,331.151367 
z"/>
<path fill="#547B9C" opacity="1.000000" stroke="none" 
	d="
M345.293427,331.178833 
	C344.991852,331.000275 345.002258,330.582977 345.008057,330.374329 
	C348.035645,330.110565 351.057404,330.055450 354.525696,330.071594 
	C351.846436,330.547729 348.720734,330.952576 345.293427,331.178833 
z"/>
<path fill="#5781A3" opacity="1.000000" stroke="none" 
	d="
M264.402710,175.018585 
	C265.164062,174.814301 266.316528,174.701355 267.727051,174.760101 
	C266.921326,174.991180 265.857574,175.050552 264.402710,175.018585 
z"/>
<path fill="#4E718E" opacity="1.000000" stroke="none" 
	d="
M322.345154,396.942688 
	C322.553711,396.792816 323.084351,396.712799 323.793274,396.756165 
	C323.536774,396.923889 323.101990,396.968201 322.345154,396.942688 
z"/>
<path fill="#3E586E" opacity="1.000000" stroke="none" 
	d="
M156.633011,103.114365 
	C156.434555,103.241699 155.923935,103.318710 155.239014,103.282906 
	C155.483414,103.134743 155.902130,103.099396 156.633011,103.114365 
z"/>
<path fill="#6494BC" opacity="1.000000" stroke="none" 
	d="
M164.326843,391.052094 
	C164.294922,390.889313 164.529099,390.627411 164.949432,390.177612 
	C164.954712,390.310852 164.773834,390.631897 164.326843,391.052094 
z"/>
<path fill="#5C87AB" opacity="1.000000" stroke="none" 
	d="
M403.074707,111.668076 
	C402.887695,111.717438 402.621460,111.496666 402.204041,111.063873 
	C402.367065,111.033867 402.681274,111.215897 403.074707,111.668076 
z"/>
</svg>