<svg version="1.1" id="Layer_1" xmlns="http://www.w3.org/2000/svg" xmlns:xlink="http://www.w3.org/1999/xlink" x="0px" y="0px"
	 width="100%" viewBox="0 0 1563 1563" enable-background="new 0 0 1563 1563" xml:space="preserve">
<path fill="#E8F1F9" opacity="1.000000" stroke="none" 
	d="
M1425.000000,1.000000 
	C1451.020874,1.000000 1477.041870,1.000000 1503.531372,1.455951 
	C1504.000000,522.607910 1504.000000,1043.303955 1504.000000,1564.000000 
	C1477.979126,1564.000000 1451.958130,1564.000000 1425.468628,1563.538818 
	C1425.000000,1042.385010 1425.000000,521.692505 1425.000000,1.000000 
z"/>
<path fill="#D8E7F3" opacity="1.000000" stroke="none" 
	d="
M1424.538818,1.000000 
	C1425.000000,521.692505 1425.000000,1042.385010 1425.000000,1563.538818 
	C1399.307495,1564.000000 1373.614990,1564.000000 1347.461182,1563.531372 
	C1347.000000,1394.813843 1347.004150,1226.564941 1346.958374,1058.316040 
	C1346.957764,1055.877197 1346.333374,1053.438721 1346.200928,1050.731689 
	C1349.098755,1048.543823 1352.074341,1046.916138 1354.444214,1044.653931 
	C1364.380127,1035.169434 1372.539917,1024.755249 1372.075928,1009.881958 
	C1371.816406,1001.562073 1372.204224,993.221802 1371.941406,984.902100 
	C1371.839111,981.660767 1371.359497,978.159485 1369.985840,975.286194 
	C1367.006104,969.053711 1363.339600,963.149536 1360.134766,956.755554 
	C1360.875366,953.889709 1361.921997,951.379944 1361.924561,948.869080 
	C1362.009521,864.306152 1361.994995,779.743103 1361.994995,695.180115 
	C1361.994995,669.045471 1362.068359,642.910339 1361.865845,616.777222 
	C1361.848389,614.515015 1360.009033,612.266846 1359.214600,609.761353 
	C1360.419678,608.928772 1361.426025,608.346924 1363.132812,607.360046 
	C1360.154419,606.167664 1358.014893,605.325195 1355.886230,604.456238 
	C1348.256592,601.341553 1340.630615,598.217834 1333.160034,594.704163 
	C1333.544678,592.014526 1333.971313,589.718201 1333.971680,587.421814 
	C1334.002319,391.947876 1334.000000,196.473938 1334.000000,1.000000 
	C1364.025879,1.000000 1394.051636,1.000000 1424.538818,1.000000 
z"/>
<path fill="#F4F9FD" opacity="1.000000" stroke="none" 
	d="
M1504.455933,1564.000000 
	C1504.000000,1043.303955 1504.000000,522.607910 1504.000000,1.455951 
	C1523.995117,1.000000 1543.990234,1.000000 1563.948730,1.000000 
	C1563.948730,522.000000 1563.948730,1043.000000 1563.948730,1564.000000 
	C1544.235596,1564.000000 1524.573730,1564.000000 1504.455933,1564.000000 
z"/>
<path fill="#0F161C" opacity="1.000000" stroke="none" 
	d="
M133.000000,1564.000000 
	C116.312439,1564.000000 99.624878,1564.000000 82.468658,1563.538818 
	C82.000000,1042.385010 82.000000,521.692505 82.000000,1.000000 
	C98.687561,1.000000 115.375122,1.000000 132.531342,1.461255 
	C133.000000,522.614990 133.000000,1043.307495 133.000000,1564.000000 
z"/>
<path fill="#162029" opacity="1.000000" stroke="none" 
	d="
M133.461243,1564.000000 
	C133.000000,1043.307495 133.000000,522.614990 133.000000,1.461255 
	C148.692505,1.000000 164.384995,1.000000 180.538757,1.461255 
	C181.000000,522.614990 181.000000,1043.307495 181.000000,1564.000000 
	C165.307495,1564.000000 149.615005,1564.000000 133.461243,1564.000000 
z"/>
<path fill="#BED6EA" opacity="1.000000" stroke="none" 
	d="
M1276.000000,1564.000000 
	C1250.312378,1564.000000 1224.624878,1564.000000 1198.468628,1563.531372 
	C1198.000000,1269.216431 1198.000000,975.370056 1197.999878,681.523682 
	C1197.999878,680.024475 1198.276001,678.455200 1197.920654,677.045410 
	C1197.551392,675.580872 1196.570801,674.270447 1196.100830,672.632812 
	C1214.766968,665.240173 1233.162231,658.035522 1251.621704,650.999268 
	C1264.326050,646.156616 1277.119507,641.547424 1290.178955,637.104248 
	C1290.988159,639.588196 1291.903931,641.797485 1291.927246,644.016235 
	C1292.064087,657.003357 1291.992188,669.992737 1291.822021,683.364197 
	C1291.449219,685.881226 1291.067017,688.015320 1291.066162,690.149536 
	C1291.035889,771.784302 1291.040527,853.419128 1291.040527,935.053894 
	C1291.040527,936.220093 1290.908447,937.404419 1291.066162,938.548828 
	C1291.445068,941.297913 1290.083862,942.438660 1287.764038,943.808289 
	C1281.646606,947.419922 1275.155396,950.854370 1270.073120,955.685120 
	C1246.271484,978.308289 1245.918823,1024.295532 1275.988525,1047.511719 
	C1275.994751,1219.984985 1275.997314,1391.992554 1276.000000,1564.000000 
z"/>
<path fill="#1C2A36" opacity="1.000000" stroke="none" 
	d="
M181.461243,1564.000000 
	C181.000000,1043.307495 181.000000,522.614990 181.000000,1.461255 
	C196.692505,1.000000 212.384995,1.000000 228.588196,1.385329 
	C229.251160,6.128016 229.485977,10.484414 229.536652,14.842953 
	C229.615585,21.632814 229.565521,28.424137 229.577469,35.214825 
	C229.588867,41.691818 229.672424,48.169407 229.608749,54.645599 
	C229.545090,61.121067 229.274185,67.594498 229.211365,74.069969 
	C229.140884,81.334167 229.195282,88.599663 229.207596,95.864578 
	C229.218033,102.026535 229.189301,108.189308 229.281479,114.350174 
	C229.380737,120.985031 229.738541,127.618279 229.728867,134.251862 
	C229.719208,140.884857 229.243790,147.517532 229.250519,154.150070 
	C229.257248,160.782562 229.695709,167.413544 229.784515,174.047333 
	C229.881760,181.310867 229.799561,188.576859 229.787720,195.841782 
	C229.777679,202.004074 229.816788,208.167252 229.723862,214.328369 
	C229.623795,220.963287 229.292343,227.595657 229.251282,234.230301 
	C229.208328,241.176529 229.452621,248.124130 229.454834,255.071152 
	C229.456635,260.734222 229.239075,266.397064 229.204666,272.060516 
	C229.160522,279.325165 229.196777,286.590332 229.208893,293.855255 
	C229.219177,300.017334 229.186234,306.180328 229.278702,312.341278 
	C229.378281,318.976196 229.741074,325.609406 229.731659,332.243011 
	C229.722275,338.875854 229.242783,345.508453 229.249237,352.140869 
	C229.255707,358.773346 229.697067,365.404327 229.785843,372.038116 
	C229.883041,379.301666 229.798111,386.567688 229.786469,393.832611 
	C229.776596,399.995026 229.819733,406.158417 229.726578,412.319641 
	C229.626266,418.954559 229.251740,425.587708 229.260498,432.221283 
	C229.269241,438.853821 229.758347,445.486084 229.752457,452.118225 
	C229.746582,458.750671 229.225067,465.383026 229.230972,472.015137 
	C229.236862,478.647614 229.733200,485.278625 229.798584,491.912415 
	C229.865387,498.692749 229.618393,505.475616 229.604645,512.257568 
	C229.592529,518.249695 229.812485,524.243225 229.747101,530.234131 
	C229.674698,536.867920 229.241760,543.499512 229.247971,550.131836 
	C229.254196,556.764343 229.675705,563.395386 229.793594,570.029175 
	C229.928558,577.623596 229.929581,585.220337 229.669403,592.994995 
	C217.238083,597.849426 205.126175,602.524963 192.313782,607.470825 
	C204.785660,612.408813 216.458557,617.030457 228.095032,622.141357 
	C228.039093,672.578186 228.007980,722.525818 228.002563,772.473389 
	C227.993271,858.254150 228.000000,944.034912 228.000000,1029.815674 
	C228.000000,1113.929810 228.000000,1198.043823 228.000000,1282.157959 
	C228.000000,1376.105347 228.000000,1470.052612 228.000000,1564.000000 
	C212.640839,1564.000000 197.281662,1564.000000 181.461243,1564.000000 
z"/>
<path fill="#080C0F" opacity="1.000000" stroke="none" 
	d="
M81.538742,1.000000 
	C82.000000,521.692505 82.000000,1042.385010 82.000000,1563.538818 
	C67.307503,1564.000000 52.615005,1564.000000 37.461254,1563.541992 
	C37.000000,1042.389404 37.000000,521.694702 37.000000,1.000000 
	C51.692497,1.000000 66.384995,1.000000 81.538742,1.000000 
z"/>
<path fill="#B0CDE5" opacity="1.000000" stroke="none" 
	d="
M1195.857666,672.892578 
	C1196.570801,674.270447 1197.551392,675.580872 1197.920654,677.045410 
	C1198.276001,678.455200 1197.999878,680.024475 1197.999878,681.523682 
	C1198.000000,975.370056 1198.000000,1269.216431 1198.000000,1563.531372 
	C1171.312378,1564.000000 1144.624878,1564.000000 1117.468628,1563.531372 
	C1117.000000,1409.380127 1117.000122,1255.697388 1116.999390,1102.014771 
	C1116.999390,1100.516235 1117.212158,1098.970337 1116.905762,1097.536255 
	C1116.708374,1096.613647 1115.741333,1095.855591 1115.238770,1094.717896 
	C1129.618774,1079.333862 1136.295288,1061.748169 1136.206055,1040.671875 
	C1135.796387,944.048218 1136.026001,847.421936 1136.026001,750.796570 
	C1136.026001,748.681702 1136.026001,746.566772 1136.026001,743.671814 
	C1129.175781,746.005005 1123.114380,748.069519 1117.035889,749.653198 
	C1117.012573,735.934204 1117.090820,722.694824 1116.904175,709.459167 
	C1116.877808,707.587830 1115.561768,705.734680 1115.091553,703.618408 
	C1132.064575,696.909973 1148.765503,690.395325 1165.521484,684.025330 
	C1175.589233,680.197876 1185.742676,676.595947 1195.857666,672.892578 
z"/>
<path fill="#C7DBED" opacity="1.000000" stroke="none" 
	d="
M1333.531372,1.000000 
	C1334.000000,196.473938 1334.002319,391.947876 1333.971680,587.421814 
	C1333.971313,589.718201 1333.544678,592.014526 1332.778076,594.663208 
	C1331.140503,594.667969 1330.020752,594.375366 1328.945923,593.964844 
	C1296.616699,581.618896 1264.292114,569.261414 1232.036011,556.527527 
	C1232.736938,553.309143 1233.919922,550.469238 1233.921265,547.628784 
	C1234.008545,365.419220 1234.000000,183.209610 1234.000000,1.000000 
	C1267.020874,1.000000 1300.041870,1.000000 1333.531372,1.000000 
z"/>
<path fill="#020304" opacity="1.000000" stroke="none" 
	d="
M36.542046,1.000000 
	C37.000000,521.694702 37.000000,1042.389404 37.000000,1563.541992 
	C25.003054,1564.000000 13.006106,1564.000000 1.046502,1564.000000 
	C1.046502,1043.000000 1.046502,522.000000 1.046502,1.000000 
	C12.756700,1.000000 24.420395,1.000000 36.542046,1.000000 
z"/>
<path fill="#B4D0E7" opacity="1.000000" stroke="none" 
	d="
M1233.531372,1.000000 
	C1234.000000,183.209610 1234.008545,365.419220 1233.921265,547.628784 
	C1233.919922,550.469238 1232.736938,553.309143 1231.701538,556.412231 
	C1211.003784,548.840088 1190.697632,541.036194 1170.420166,533.158630 
	C1157.590698,528.174500 1144.803833,523.080444 1132.175781,517.690125 
	C1132.902466,514.828979 1133.930542,512.313538 1133.931641,509.797699 
	C1134.007202,340.198486 1134.000000,170.599243 1134.000000,1.000000 
	C1167.020874,1.000000 1200.041870,1.000000 1233.531372,1.000000 
z"/>
<path fill="#365167" opacity="1.000000" stroke="none" 
	d="
M417.000000,1564.000000 
	C399.645782,1564.000000 382.291534,1564.000000 364.468658,1563.531372 
	C364.000000,1269.721313 363.997131,976.379944 364.040833,683.038574 
	C364.041260,680.086121 364.657104,677.133728 365.349304,674.188721 
	C382.823303,681.091614 399.933655,687.987061 417.031677,695.358398 
	C417.013275,721.615295 417.002747,747.396423 417.002075,773.177490 
	C416.999847,858.290222 417.001343,943.402893 417.001190,1028.515625 
	C417.000885,1207.010376 417.000427,1385.505249 417.000000,1564.000000 
z"/>
<path fill="#2E4558" opacity="1.000000" stroke="none" 
	d="
M364.985657,674.181274 
	C364.657104,677.133728 364.041260,680.086121 364.040833,683.038574 
	C363.997131,976.379944 364.000000,1269.721313 364.000000,1563.531372 
	C347.312439,1564.000000 330.624878,1564.000000 313.468658,1563.533936 
	C312.995453,1260.114868 312.990936,957.161743 313.348572,654.222839 
	C330.802429,660.885132 347.894043,667.533203 364.985657,674.181274 
z"/>
<path fill="#A3C4E0" opacity="1.000000" stroke="none" 
	d="
M1133.531372,1.000000 
	C1134.000000,170.599243 1134.007202,340.198486 1133.931641,509.797699 
	C1133.930542,512.313538 1132.902466,514.828979 1131.796143,517.662231 
	C1113.718872,511.287018 1096.182129,504.638245 1078.685303,497.885864 
	C1067.084717,493.408936 1055.541504,488.783630 1043.980347,483.742065 
	C1043.992065,322.506256 1043.995972,161.753128 1044.000000,1.000000 
	C1073.687622,1.000000 1103.375122,1.000000 1133.531372,1.000000 
z"/>
<path fill="#82AFD5" opacity="1.000000" stroke="none" 
	d="
M853.000000,1.000000 
	C886.020874,1.000000 919.041809,1.000000 952.583862,1.394098 
	C953.287109,4.063105 953.572876,6.335525 953.627502,8.613493 
	C953.713379,12.191627 953.643494,15.773499 953.639343,19.353788 
	C953.627930,29.154348 953.610291,38.954906 953.606995,48.755470 
	C953.604858,54.948734 953.591309,61.142269 953.641113,67.335213 
	C953.716003,76.650597 953.886597,85.965332 953.933655,95.280769 
	C953.983093,105.055794 953.936584,114.831299 953.928772,124.606598 
	C953.921570,133.600266 953.955200,142.594284 953.887512,151.587524 
	C953.818848,160.716507 953.588074,169.844406 953.538574,178.973373 
	C953.484497,188.932678 953.550354,198.892715 953.576965,208.852402 
	C953.593506,215.045670 953.645203,221.238846 953.661316,227.432114 
	C953.679626,234.461456 953.674500,241.490860 953.681824,248.520233 
	C953.690491,256.873657 953.682800,265.227142 953.717468,273.580444 
	C953.745361,280.288147 953.850342,286.995514 953.876282,293.703217 
	C953.902710,300.538239 953.873901,307.373474 953.870117,314.208618 
	C953.866455,320.756287 953.894897,327.304138 953.853638,333.851562 
	C953.796143,342.977417 953.605713,352.103058 953.622253,361.228516 
	C953.639160,370.542267 953.955261,379.856110 953.923035,389.169159 
	C953.891418,398.302734 953.555115,407.434875 953.409546,416.568512 
	C953.232788,427.659760 953.115540,438.751892 952.631836,449.761230 
	C935.416016,443.133972 918.535400,436.603516 901.667603,430.040253 
	C885.436401,423.724701 869.218445,417.375275 852.996277,410.569550 
	C852.998596,273.732208 852.999329,137.366104 853.000000,1.000000 
z"/>
<path fill="#94BBDB" opacity="1.000000" stroke="none" 
	d="
M952.972595,449.843658 
	C953.115540,438.751892 953.232788,427.659760 953.409546,416.568512 
	C953.555115,407.434875 953.891418,398.302734 953.923035,389.169159 
	C953.955261,379.856110 953.639160,370.542267 953.622253,361.228516 
	C953.605713,352.103058 953.796143,342.977417 953.853638,333.851562 
	C953.894897,327.304138 953.866455,320.756287 953.870117,314.208618 
	C953.873901,307.373474 953.902710,300.538239 953.876282,293.703217 
	C953.850342,286.995514 953.745361,280.288147 953.717468,273.580444 
	C953.682800,265.227142 953.690491,256.873657 953.681824,248.520233 
	C953.674500,241.490860 953.679626,234.461456 953.661316,227.432114 
	C953.645203,221.238846 953.593506,215.045670 953.576965,208.852402 
	C953.550354,198.892715 953.484497,188.932678 953.538574,178.973373 
	C953.588074,169.844406 953.818848,160.716507 953.887512,151.587524 
	C953.955200,142.594284 953.921570,133.600266 953.928772,124.606598 
	C953.936584,114.831299 953.983093,105.055794 953.933655,95.280769 
	C953.886597,85.965332 953.716003,76.650597 953.641113,67.335213 
	C953.591309,61.142269 953.604858,54.948734 953.606995,48.755470 
	C953.610291,38.954906 953.627930,29.154348 953.639343,19.353788 
	C953.643494,15.773499 953.713379,12.191627 953.627502,8.613493 
	C953.572876,6.335525 953.287109,4.063105 953.052490,1.394098 
	C983.020935,1.000000 1013.041809,1.000000 1043.531372,1.000000 
	C1043.995972,161.753128 1043.992065,322.506256 1043.602539,483.672638 
	C1042.273926,483.778076 1041.316040,483.509430 1040.390137,483.156769 
	C1011.249023,472.057434 982.111023,460.949921 952.972595,449.843658 
z"/>
<path fill="#283C4C" opacity="1.000000" stroke="none" 
	d="
M312.986389,654.208618 
	C312.990936,957.161743 312.995453,1260.114868 313.000000,1563.533936 
	C298.977356,1564.000000 284.954712,1564.000000 270.466034,1563.531372 
	C270.000000,1547.455322 270.000000,1531.847900 270.000000,1516.240479 
	C270.000000,1431.500488 270.000000,1346.760620 270.000000,1262.020630 
	C270.000000,1177.114136 270.000000,1092.207642 270.000000,1007.301147 
	C270.000000,922.894348 270.000000,838.487610 270.000000,754.080811 
	C270.000000,719.264709 270.033569,684.448547 269.955414,649.632629 
	C269.946167,645.512573 269.325104,641.393860 269.341766,637.314697 
	C284.126068,642.972778 298.556244,648.590698 312.986389,654.208618 
z"/>
<path fill="#223341" opacity="1.000000" stroke="none" 
	d="
M268.987640,637.274536 
	C269.325104,641.393860 269.946167,645.512573 269.955414,649.632629 
	C270.033569,684.448547 270.000000,719.264709 270.000000,754.080811 
	C270.000000,838.487610 270.000000,922.894348 270.000000,1007.301147 
	C270.000000,1092.207642 270.000000,1177.114136 270.000000,1262.020630 
	C270.000000,1346.760620 270.000000,1431.500488 270.000000,1516.240479 
	C270.000000,1531.847900 270.000000,1547.455322 270.000000,1563.531372 
	C256.312439,1564.000000 242.624878,1564.000000 228.468658,1564.000000 
	C228.000000,1470.052612 228.000000,1376.105347 228.000000,1282.157959 
	C228.000000,1198.043823 228.000000,1113.929810 228.000000,1029.815674 
	C228.000000,944.034912 227.993271,858.254150 228.002563,772.473389 
	C228.007980,722.525818 228.039093,672.578186 228.472992,622.199219 
	C242.254120,626.936707 255.620880,632.105591 268.987640,637.274536 
z"/>
<path fill="#CCDFEF" opacity="1.000000" stroke="none" 
	d="
M1276.468628,1564.000000 
	C1275.997314,1391.992554 1275.994751,1219.984985 1276.299194,1047.645996 
	C1287.451050,1055.257446 1299.816772,1058.305298 1313.032593,1059.071045 
	C1324.919556,1059.759766 1335.501465,1055.684570 1346.000000,1051.000000 
	C1346.333374,1053.438721 1346.957764,1055.877197 1346.958374,1058.316040 
	C1347.004150,1226.564941 1347.000000,1394.813843 1347.000000,1563.531372 
	C1323.645752,1564.000000 1300.291504,1564.000000 1276.468628,1564.000000 
z"/>
<path fill="#82AFD5" opacity="1.000000" stroke="none" 
	d="
M959.000000,1564.000000 
	C933.312439,1564.000000 907.624878,1564.000000 881.468628,1563.582520 
	C881.050659,1560.404419 881.100403,1557.644043 881.152283,1554.883545 
	C881.277527,1548.227417 881.451599,1541.571655 881.514771,1534.914917 
	C881.568481,1529.258057 881.525452,1523.599731 881.469482,1517.942627 
	C881.403564,1511.283691 881.234985,1504.625732 881.189392,1497.966797 
	C881.141846,1491.018799 881.177856,1484.070190 881.195557,1477.121826 
	C881.212097,1470.619141 881.270935,1464.116455 881.277161,1457.613770 
	C881.283691,1450.824463 881.221069,1444.034912 881.241272,1437.245728 
	C881.261047,1430.585327 881.363708,1423.925415 881.399048,1417.265015 
	C881.433350,1410.790527 881.443787,1404.315674 881.436401,1397.841064 
	C881.428650,1391.023438 881.361511,1384.205933 881.368164,1377.388306 
	C881.374512,1370.913574 881.460205,1364.438965 881.479126,1357.964233 
	C881.499512,1350.989380 881.476990,1344.014404 881.484314,1337.039551 
	C881.490967,1330.722168 881.567505,1324.404175 881.512573,1318.087402 
	C881.454590,1311.430298 881.174072,1304.774048 881.181396,1298.117676 
	C881.188721,1291.482788 881.465942,1284.848511 881.563171,1278.213135 
	C881.660339,1271.584229 881.777588,1264.953369 881.708069,1258.325073 
	C881.640137,1251.845337 881.221436,1245.368286 881.188477,1238.889038 
	C881.154602,1232.233154 881.452332,1225.576294 881.510376,1218.919067 
	C881.565491,1212.602295 881.533203,1206.283936 881.475281,1199.967041 
	C881.414185,1193.308228 881.231750,1186.650513 881.186035,1179.991577 
	C881.138306,1173.043457 881.183533,1166.094727 881.200562,1159.146240 
	C881.216492,1152.643311 881.219849,1146.140259 881.282166,1139.637695 
	C881.344177,1133.162476 881.516907,1126.688110 881.560303,1120.212891 
	C881.608154,1113.081055 881.963196,1105.916748 881.397461,1098.829346 
	C881.097351,1095.069702 883.436096,1089.926880 877.929932,1087.554688 
	C881.743347,1086.148071 885.308594,1084.091187 888.898682,1084.046753 
	C909.925659,1083.787476 930.958496,1083.998779 951.992676,1084.494385 
	C952.193359,1090.825806 952.445740,1096.712891 952.574829,1102.602661 
	C952.760010,1111.050049 952.855225,1119.499268 952.522705,1127.991699 
	C940.395569,1128.055054 928.732788,1128.196899 917.074829,1128.022583 
	C913.399963,1127.967529 912.034424,1129.072754 912.147156,1132.843384 
	C912.376160,1140.499512 912.215393,1148.167236 912.215332,1155.830200 
	C912.215332,1161.117798 912.215393,1166.405518 912.215393,1172.281006 
	C915.508972,1171.986450 918.137512,1171.931763 920.699890,1171.491699 
	C933.468445,1169.298584 946.219482,1167.004028 958.982666,1165.229736 
	C958.992371,1298.476196 958.996216,1431.238159 959.000000,1564.000000 
z"/>
<path fill="#70A3CE" opacity="1.000000" stroke="none" 
	d="
M852.531372,1.000000 
	C852.999329,137.366104 852.998596,273.732208 852.623413,410.530731 
	C832.281189,403.353027 812.177612,396.075195 792.407349,387.982819 
	C783.461182,384.320923 775.080750,381.819519 766.137756,387.196381 
	C765.866150,387.359711 765.499146,387.364319 765.129089,386.948547 
	C765.054382,383.955048 765.003479,381.455902 765.003418,378.956757 
	C764.999512,252.971176 765.000000,126.985588 765.000000,1.000000 
	C794.020874,1.000000 823.041809,1.000000 852.531372,1.000000 
z"/>
<path fill="#A3C4E0" opacity="1.000000" stroke="none" 
	d="
M1115.119385,1095.023682 
	C1115.741333,1095.855591 1116.708374,1096.613647 1116.905762,1097.536255 
	C1117.212158,1098.970337 1116.999390,1100.516235 1116.999390,1102.014771 
	C1117.000122,1255.697388 1117.000000,1409.380127 1117.000000,1563.531372 
	C1091.645752,1564.000000 1066.291504,1564.000000 1040.468628,1563.531372 
	C1040.000000,1425.207642 1040.005737,1287.352539 1039.956665,1149.497437 
	C1039.955688,1146.889648 1039.306152,1144.282104 1039.201172,1141.449219 
	C1049.845703,1136.504517 1060.444458,1132.168213 1070.606934,1126.977783 
	C1087.017822,1118.596069 1102.271973,1108.445557 1115.119385,1095.023682 
z"/>
<path fill="#94BBDB" opacity="1.000000" stroke="none" 
	d="
M1038.959351,1141.674438 
	C1039.306152,1144.282104 1039.955688,1146.889648 1039.956665,1149.497437 
	C1040.005737,1287.352539 1040.000000,1425.207642 1040.000000,1563.531372 
	C1013.312439,1564.000000 986.624878,1564.000000 959.468628,1564.000000 
	C958.996216,1431.238159 958.992371,1298.476196 959.272705,1165.006348 
	C962.630371,1163.615845 965.752869,1163.101807 968.769653,1162.224243 
	C992.177673,1155.413818 1015.565369,1148.533325 1038.959351,1141.674438 
z"/>
<path fill="#78A9D1" opacity="1.000000" stroke="none" 
	d="
M877.693298,1087.834229 
	C883.436096,1089.926880 881.097351,1095.069702 881.397461,1098.829346 
	C881.963196,1105.916748 881.608154,1113.081055 881.560303,1120.212891 
	C881.516907,1126.688110 881.344177,1133.162476 881.282166,1139.637695 
	C881.219849,1146.140259 881.216492,1152.643311 881.200562,1159.146240 
	C881.183533,1166.094727 881.138306,1173.043457 881.186035,1179.991577 
	C881.231750,1186.650513 881.414185,1193.308228 881.475281,1199.967041 
	C881.533203,1206.283936 881.565491,1212.602295 881.510376,1218.919067 
	C881.452332,1225.576294 881.154602,1232.233154 881.188477,1238.889038 
	C881.221436,1245.368286 881.640137,1251.845337 881.708069,1258.325073 
	C881.777588,1264.953369 881.660339,1271.584229 881.563171,1278.213135 
	C881.465942,1284.848511 881.188721,1291.482788 881.181396,1298.117676 
	C881.174072,1304.774048 881.454590,1311.430298 881.512573,1318.087402 
	C881.567505,1324.404175 881.490967,1330.722168 881.484314,1337.039551 
	C881.476990,1344.014404 881.499512,1350.989380 881.479126,1357.964233 
	C881.460205,1364.438965 881.374512,1370.913574 881.368164,1377.388306 
	C881.361511,1384.205933 881.428650,1391.023438 881.436401,1397.841064 
	C881.443787,1404.315674 881.433350,1410.790527 881.399048,1417.265015 
	C881.363708,1423.925415 881.261047,1430.585327 881.241272,1437.245728 
	C881.221069,1444.034912 881.283691,1450.824463 881.277161,1457.613770 
	C881.270935,1464.116455 881.212097,1470.619141 881.195557,1477.121826 
	C881.177856,1484.070190 881.141846,1491.018799 881.189392,1497.966797 
	C881.234985,1504.625732 881.403564,1511.283691 881.469482,1517.942627 
	C881.525452,1523.599731 881.568481,1529.258057 881.514771,1534.914917 
	C881.451599,1541.571655 881.277527,1548.227417 881.152283,1554.883545 
	C881.100403,1557.644043 881.050659,1560.404419 881.000000,1563.582520 
	C860.645752,1564.000000 840.291565,1564.000000 819.468628,1563.532959 
	C819.004517,1380.995850 819.008972,1198.925781 819.477783,1016.796143 
	C835.818970,1016.736633 851.695801,1016.736633 867.499390,1016.736633 
	C867.499390,1001.339844 867.499390,986.802246 867.499390,971.880798 
	C859.148193,971.880798 851.187744,971.999023 843.234009,971.820129 
	C840.238464,971.752747 838.670654,973.070923 836.667297,975.182007 
	C832.178162,979.912476 827.003601,983.992371 822.076538,987.841003 
	C822.024902,961.627991 822.004822,935.911133 822.313660,910.265015 
	C827.554138,914.946411 832.459595,919.563721 837.382263,924.162659 
	C838.416687,925.129089 839.495178,926.808105 840.585815,926.834961 
	C849.498169,927.053528 858.418091,926.958008 867.897156,926.958008 
	C867.897156,924.626831 867.897278,922.846313 867.897156,921.065796 
	C867.896362,907.775940 867.935974,894.485962 867.878113,881.196350 
	C867.848450,874.397095 870.821289,869.193848 876.059937,865.466797 
	C876.414307,868.162842 876.961304,870.449341 876.962952,872.736267 
	C877.007141,935.471802 876.995850,998.207336 876.528198,1060.998169 
	C858.481201,1061.053467 840.899780,1061.053467 823.363525,1061.053467 
	C823.363525,1101.519653 823.363525,1141.087769 823.363525,1180.801758 
	C824.513916,1180.884766 825.328003,1181.030151 826.132385,1180.988525 
	C838.716248,1180.338135 851.298218,1179.652588 863.882019,1179.000977 
	C867.489746,1178.814087 867.950562,1176.584351 867.940125,1173.544678 
	C867.861511,1150.720703 867.852905,1127.896362 867.920959,1105.072388 
	C867.943298,1097.572144 870.996033,1091.629883 877.693298,1087.834229 
z"/>
<path fill="#3E5C75" opacity="1.000000" stroke="none" 
	d="
M417.468658,1564.000000 
	C417.000427,1385.505249 417.000885,1207.010376 417.001190,1028.515625 
	C417.001343,943.402893 416.999847,858.290222 417.002075,773.177490 
	C417.002747,747.396423 417.013275,721.615295 417.430420,695.400879 
	C418.664062,695.027954 419.562469,694.892578 420.297974,695.177612 
	C438.207123,702.117004 456.098877,709.101196 473.995148,716.540833 
	C473.997284,730.252747 474.041779,743.501587 473.953705,756.749451 
	C473.939789,758.844299 473.327362,760.935120 472.616577,763.012634 
	C455.216125,756.540894 438.190796,750.084351 420.736938,743.465332 
	C420.736938,775.116882 420.736938,806.078491 420.736938,837.459778 
	C428.948730,837.459778 436.756805,837.307617 444.553955,837.533203 
	C447.751343,837.625793 449.591797,836.588135 451.446198,833.926819 
	C456.787048,826.261963 463.600739,820.325500 472.998718,818.500610 
	C473.000732,846.637756 473.002319,874.308594 472.632080,901.980347 
	C463.031982,898.953491 456.046112,893.078247 450.642914,885.120972 
	C449.865845,883.976562 448.636230,882.336548 447.581146,882.309998 
	C438.657562,882.085022 429.725861,882.181580 420.322815,882.181580 
	C420.322815,884.473083 420.322784,886.102783 420.322815,887.732483 
	C420.323944,940.213562 420.439148,992.695129 420.248962,1045.175537 
	C420.199036,1058.949707 424.485352,1071.141479 431.741425,1082.486694 
	C440.988159,1096.944336 454.065002,1107.454224 467.989594,1117.510132 
	C467.995056,1266.650024 467.997528,1415.325073 468.000000,1564.000000 
	C451.312439,1564.000000 434.624878,1564.000000 417.468658,1564.000000 
z"/>
<path fill="#223341" opacity="1.000000" stroke="none" 
	d="
M229.988815,592.816101 
	C229.929581,585.220337 229.928558,577.623596 229.793594,570.029175 
	C229.675705,563.395386 229.254196,556.764343 229.247971,550.131836 
	C229.241760,543.499512 229.674698,536.867920 229.747101,530.234131 
	C229.812485,524.243225 229.592529,518.249695 229.604645,512.257568 
	C229.618393,505.475616 229.865387,498.692749 229.798584,491.912415 
	C229.733200,485.278625 229.236862,478.647614 229.230972,472.015137 
	C229.225067,465.383026 229.746582,458.750671 229.752457,452.118225 
	C229.758347,445.486084 229.269241,438.853821 229.260498,432.221283 
	C229.251740,425.587708 229.626266,418.954559 229.726578,412.319641 
	C229.819733,406.158417 229.776596,399.995026 229.786469,393.832611 
	C229.798111,386.567688 229.883041,379.301666 229.785843,372.038116 
	C229.697067,365.404327 229.255707,358.773346 229.249237,352.140869 
	C229.242783,345.508453 229.722275,338.875854 229.731659,332.243011 
	C229.741074,325.609406 229.378281,318.976196 229.278702,312.341278 
	C229.186234,306.180328 229.219177,300.017334 229.208893,293.855255 
	C229.196777,286.590332 229.160522,279.325165 229.204666,272.060516 
	C229.239075,266.397064 229.456635,260.734222 229.454834,255.071152 
	C229.452621,248.124130 229.208328,241.176529 229.251282,234.230301 
	C229.292343,227.595657 229.623795,220.963287 229.723862,214.328369 
	C229.816788,208.167252 229.777679,202.004074 229.787720,195.841782 
	C229.799561,188.576859 229.881760,181.310867 229.784515,174.047333 
	C229.695709,167.413544 229.257248,160.782562 229.250519,154.150070 
	C229.243790,147.517532 229.719208,140.884857 229.728867,134.251862 
	C229.738541,127.618279 229.380737,120.985031 229.281479,114.350174 
	C229.189301,108.189308 229.218033,102.026535 229.207596,95.864578 
	C229.195282,88.599663 229.140884,81.334167 229.211365,74.069969 
	C229.274185,67.594498 229.545090,61.121067 229.608749,54.645599 
	C229.672424,48.169407 229.588867,41.691818 229.577469,35.214825 
	C229.565521,28.424137 229.615585,21.632814 229.536652,14.842953 
	C229.485977,10.484414 229.251160,6.128016 229.049438,1.385329 
	C245.020889,1.000000 261.041779,1.000000 277.531006,1.466985 
	C278.003510,192.664795 278.007660,383.395630 277.712189,574.317993 
	C261.604645,580.611694 245.796738,586.713867 229.988815,592.816101 
z"/>
<path fill="#70A3CE" opacity="1.000000" stroke="none" 
	d="
M819.013428,1016.855591 
	C819.008972,1198.925781 819.004517,1380.995850 819.000000,1563.532959 
	C800.644653,1564.000000 782.289307,1564.000000 763.467407,1563.531372 
	C762.994629,1436.095459 762.988464,1309.128296 763.446533,1182.091553 
	C768.512207,1182.022095 773.113586,1182.022095 778.118042,1182.022095 
	C778.118042,1168.649902 778.117859,1156.013672 778.118042,1143.377441 
	C778.118530,1109.216187 778.082458,1075.055054 778.137024,1040.893799 
	C778.160889,1025.954346 787.183044,1016.877014 802.022400,1016.727051 
	C807.685059,1016.669800 813.349670,1016.807007 819.013428,1016.855591 
z"/>
<path fill="#2A3E4F" opacity="1.000000" stroke="none" 
	d="
M278.011810,574.126465 
	C278.007660,383.395630 278.003510,192.664795 277.999695,1.466985 
	C294.022003,1.000000 310.044037,1.000000 326.533020,1.468657 
	C326.994873,186.527237 326.989746,371.117157 326.650391,555.876709 
	C320.755127,558.198242 315.215912,560.408813 309.628204,562.489380 
	C299.104126,566.407959 288.552185,570.251648 278.011810,574.126465 
z"/>
<path fill="#30485C" opacity="1.000000" stroke="none" 
	d="
M326.984589,555.707092 
	C326.989746,371.117157 326.994873,186.527237 327.000000,1.468657 
	C343.020905,1.000000 359.041779,1.000000 375.530884,1.468657 
	C375.996063,180.229553 375.993042,358.521790 375.634216,536.929504 
	C359.180450,543.265686 343.082520,549.486389 326.984589,555.707092 
z"/>
<path fill="#4B6F8D" opacity="1.000000" stroke="none" 
	d="
M567.000000,1564.000000 
	C549.979126,1564.000000 532.958191,1564.000000 515.468628,1563.532227 
	C515.002808,1422.347534 515.005676,1281.630737 515.392090,1140.870117 
	C528.491638,1145.191162 541.207642,1149.556152 554.710266,1154.191162 
	C554.710266,1138.228027 554.714966,1123.804321 554.699646,1109.380493 
	C554.698608,1108.419800 554.545288,1107.459229 554.405273,1105.828857 
	C543.462891,1105.828857 532.726257,1105.828857 521.992249,1105.371338 
	C521.994324,1046.303955 521.993713,987.694031 522.367920,929.060791 
	C555.718262,937.829224 564.980652,980.774780 541.629883,1002.075684 
	C533.150452,1009.810913 531.427124,1017.356445 532.041321,1027.342041 
	C532.469727,1034.307495 532.123718,1041.320435 532.123657,1048.312256 
	C532.123657,1052.429199 532.123657,1056.546143 532.123657,1061.394531 
	C544.107910,1061.394531 555.545654,1061.394531 566.984741,1061.838379 
	C566.990723,1229.521606 566.995361,1396.760742 567.000000,1564.000000 
z"/>
<path fill="#365167" opacity="1.000000" stroke="none" 
	d="
M375.990051,536.814026 
	C375.993042,358.521790 375.996063,180.229553 375.999512,1.468657 
	C391.687561,1.000000 407.375122,1.000000 423.530823,1.466985 
	C423.998932,171.538559 423.998566,341.143158 424.002563,510.747742 
	C424.002625,513.246216 424.057251,515.744690 423.838318,518.489990 
	C407.723511,524.762512 391.856781,530.788269 375.990051,536.814026 
z"/>
<path fill="#608FB6" opacity="1.000000" stroke="none" 
	d="
M717.000000,1564.000000 
	C701.979126,1564.000000 686.958191,1564.000000 671.468628,1563.531372 
	C671.000000,1436.875488 671.006531,1310.688232 670.957703,1184.500977 
	C670.956665,1181.718750 670.324341,1178.936768 670.413574,1176.102295 
	C676.703491,1176.661011 682.566284,1177.272339 688.551147,1177.896362 
	C688.551147,1123.865723 688.551147,1070.423950 688.551147,1016.370911 
	C686.098938,1016.370911 683.978882,1016.383545 681.858948,1016.368713 
	C674.234863,1016.315369 666.610718,1016.252808 658.990601,1015.785645 
	C658.995483,1000.933228 658.996338,986.488953 659.459839,971.961182 
	C676.200439,971.876892 692.478699,971.823730 708.756042,971.926453 
	C711.505920,971.943787 714.251587,972.632507 716.999634,973.478882 
	C717.000061,1170.631226 717.000000,1367.315674 717.000000,1564.000000 
z"/>
<path fill="#527A9C" opacity="1.000000" stroke="none" 
	d="
M567.468628,1564.000000 
	C566.995361,1396.760742 566.990723,1229.521606 567.439819,1061.738770 
	C569.388306,1061.177368 570.891479,1061.257202 572.376282,1061.126831 
	C588.117188,1059.746094 599.914551,1070.061035 599.378906,1087.792847 
	C598.661987,1111.525635 599.201538,1135.296387 599.201599,1159.050903 
	C599.201599,1160.847412 599.201599,1162.643921 599.201599,1164.619995 
	C606.750732,1166.202881 613.868469,1167.695312 620.989380,1169.644653 
	C620.995056,1301.401001 620.997559,1432.700562 621.000000,1564.000000 
	C603.312439,1564.000000 585.624878,1564.000000 567.468628,1564.000000 
z"/>
<path fill="#3E5C75" opacity="1.000000" stroke="none" 
	d="
M424.086395,518.243164 
	C424.057251,515.744690 424.002625,513.246216 424.002563,510.747742 
	C423.998566,341.143158 423.998932,171.538559 423.999451,1.466985 
	C439.688690,1.000000 455.377350,1.000000 471.533020,1.468657 
	C471.997620,167.926651 471.995239,333.915985 471.637909,500.012329 
	C455.550781,506.160583 439.818573,512.201843 424.086395,518.243164 
z"/>
<path fill="#446682" opacity="1.000000" stroke="none" 
	d="
M471.992859,499.905334 
	C471.995239,333.915985 471.997620,167.926651 472.000000,1.468657 
	C488.020905,1.000000 504.041779,1.000000 520.531372,1.468657 
	C521.003967,161.639130 521.007935,321.340942 520.757996,481.292419 
	C504.333679,487.663177 488.163269,493.784271 471.992859,499.905334 
z"/>
<path fill="#4B6F8D" opacity="1.000000" stroke="none" 
	d="
M521.011902,481.042725 
	C521.007935,321.340942 521.003967,161.639130 521.000000,1.468657 
	C537.020874,1.000000 553.041809,1.000000 569.531067,1.468657 
	C570.001343,155.307571 570.003235,308.677826 569.697937,462.229431 
	C553.264465,468.621429 537.138184,474.832092 521.011902,481.042725 
z"/>
<path fill="#527A9C" opacity="1.000000" stroke="none" 
	d="
M570.005066,462.048096 
	C570.003235,308.677826 570.001343,155.307571 569.999756,1.468657 
	C586.020874,1.000000 602.041809,1.000000 618.531372,1.467854 
	C619.000000,146.640350 618.998962,291.345001 619.008667,436.049652 
	C619.008850,438.544495 619.138916,441.039307 618.911011,443.706604 
	C607.983337,447.966919 597.371643,452.104401 586.714905,456.122284 
	C581.186157,458.206757 575.577576,460.079590 570.005066,462.048096 
z"/>
<path fill="#6698C1" opacity="1.000000" stroke="none" 
	d="
M717.468628,1564.000000 
	C717.000000,1367.315674 717.000061,1170.631226 717.372681,973.437744 
	C721.287598,975.265198 725.341919,977.096130 728.259644,980.049866 
	C733.408264,985.262024 733.682861,992.319702 733.683899,999.227600 
	C733.692200,1057.703369 733.688171,1116.179077 733.687805,1174.654785 
	C733.687805,1176.732544 733.687805,1178.810425 733.687805,1182.161011 
	C744.043335,1182.161011 753.512756,1182.161011 762.982239,1182.161011 
	C762.988464,1309.128296 762.994629,1436.095459 763.000366,1563.531372 
	C747.979126,1564.000000 732.958191,1564.000000 717.468628,1564.000000 
z"/>
<path fill="#5984A8" opacity="1.000000" stroke="none" 
	d="
M619.208313,443.534149 
	C619.138916,441.039307 619.008850,438.544495 619.008667,436.049652 
	C618.998962,291.345001 619.000000,146.640350 619.000000,1.467854 
	C634.688110,1.000000 650.376221,1.000000 666.532166,1.468657 
	C666.995911,142.913712 666.991821,283.890106 666.653198,425.023743 
	C650.615234,431.298706 634.911804,437.416443 619.208313,443.534149 
z"/>
<path fill="#446682" opacity="1.000000" stroke="none" 
	d="
M515.008545,1140.913940 
	C515.005676,1281.630737 515.002808,1422.347534 515.000000,1563.532227 
	C499.645233,1564.000000 484.290466,1564.000000 468.467834,1564.000000 
	C467.997528,1415.325073 467.995056,1266.650024 468.330566,1117.567139 
	C484.115204,1125.077393 499.561890,1132.995728 515.008545,1140.913940 
z"/>
<path fill="#608FB6" opacity="1.000000" stroke="none" 
	d="
M666.987732,424.866486 
	C666.991821,283.890106 666.995911,142.913712 667.000000,1.468657 
	C682.687561,1.000000 698.375122,1.000000 714.531372,1.468657 
	C715.000000,102.750099 715.001465,203.562881 714.999268,304.375671 
	C714.998474,338.506500 714.988403,372.637329 714.645996,406.925964 
	C706.134521,410.268768 697.987366,413.527649 689.776428,416.616974 
	C682.215881,419.461609 674.586670,422.123901 666.987732,424.866486 
z"/>
<path fill="#6698C1" opacity="1.000000" stroke="none" 
	d="
M714.982605,406.768127 
	C714.988403,372.637329 714.998474,338.506500 714.999268,304.375671 
	C715.001465,203.562881 715.000000,102.750099 715.000000,1.468657 
	C731.354248,1.000000 747.708435,1.000000 764.531372,1.000000 
	C765.000000,126.985588 764.999512,252.971176 765.003418,378.956757 
	C765.003479,381.455902 765.054382,383.955048 764.835083,387.140442 
	C761.812256,388.868103 759.029907,389.893768 756.260681,390.953583 
	C742.499390,396.220154 728.741577,401.495728 714.982605,406.768127 
z"/>
<path fill="#5984A8" opacity="1.000000" stroke="none" 
	d="
M621.468628,1564.000000 
	C620.997559,1432.700562 620.995056,1301.401001 621.396362,1169.605957 
	C637.862244,1171.458374 653.924377,1173.806519 669.986511,1176.154663 
	C670.324341,1178.936768 670.956665,1181.718750 670.957703,1184.500977 
	C671.006531,1310.688232 671.000000,1436.875488 671.000000,1563.531372 
	C654.645752,1564.000000 638.291565,1564.000000 621.468628,1564.000000 
z"/>
<path fill="#FFFFFF" opacity="1.000000" stroke="none" 
	d="
M714.645996,406.925964 
	C728.741577,401.495728 742.499390,396.220154 756.260681,390.953583 
	C759.029907,389.893768 761.812256,388.868103 764.882629,387.634827 
	C765.499146,387.364319 765.866150,387.359711 766.137756,387.196381 
	C775.080750,381.819519 783.461182,384.320923 792.407349,387.982819 
	C812.177612,396.075195 832.281189,403.353027 852.621704,411.001953 
	C869.218445,417.375275 885.436401,423.724701 901.667603,430.040253 
	C918.535400,436.603516 935.416016,443.133972 952.631836,449.761230 
	C982.111023,460.949921 1011.249023,472.057434 1040.390137,483.156769 
	C1041.316040,483.509430 1042.273926,483.778076 1043.594727,484.155334 
	C1055.541504,488.783630 1067.084717,493.408936 1078.685303,497.885864 
	C1096.182129,504.638245 1113.718872,511.287018 1131.618286,518.007812 
	C1144.803833,523.080444 1157.590698,528.174500 1170.420166,533.158630 
	C1190.697632,541.036194 1211.003784,548.840088 1231.632202,556.790466 
	C1264.292114,569.261414 1296.616699,581.618896 1328.945923,593.964844 
	C1330.020752,594.375366 1331.140503,594.667969 1332.621338,595.056519 
	C1340.630615,598.217834 1348.256592,601.341553 1355.886230,604.456238 
	C1358.014893,605.325195 1360.154419,606.167664 1363.132812,607.360046 
	C1361.426025,608.346924 1360.419678,608.928772 1358.841919,609.804077 
	C1345.116577,615.095459 1331.931030,620.012024 1318.819336,625.118347 
	C1309.120728,628.895508 1299.518433,632.919800 1289.873169,636.833984 
	C1277.119507,641.547424 1264.326050,646.156616 1251.621704,650.999268 
	C1233.162231,658.035522 1214.766968,665.240173 1196.100952,672.632812 
	C1185.742676,676.595947 1175.589233,680.197876 1165.521484,684.025330 
	C1148.765503,690.395325 1132.064575,696.909973 1114.724365,703.661621 
	C1102.689575,708.271667 1091.246948,712.521912 1079.857910,716.911377 
	C1065.217163,722.554016 1050.619385,728.308350 1035.632324,734.052734 
	C1017.724243,740.774353 1000.168274,747.409302 982.656372,754.158752 
	C971.054626,758.630310 959.516052,763.265930 947.576294,767.890442 
	C930.262695,774.378113 913.301208,780.749512 896.387756,787.245850 
	C882.898315,792.427124 869.467346,797.760864 855.640930,803.057373 
	C833.003357,811.597656 810.679871,819.966614 788.502930,828.707458 
	C782.306091,831.149902 776.437500,832.995850 769.821777,829.513916 
	C766.467957,828.121948 763.377747,826.970459 760.293823,825.802429 
	C745.527710,820.209839 730.763306,814.612793 715.708496,808.805542 
	C698.278076,802.075500 681.137451,795.557312 663.702820,788.832642 
	C643.604492,781.089539 623.800232,773.552917 603.721497,765.791260 
	C580.712830,756.874023 557.978577,748.181885 534.940552,739.310059 
	C531.728638,738.030579 528.818665,736.935547 525.912720,735.830078 
	C508.605927,729.247131 491.299988,722.661865 473.993774,716.077393 
	C456.098877,709.101196 438.207123,702.117004 420.297974,695.177612 
	C419.562469,694.892578 418.664062,695.027954 417.442780,694.924988 
	C399.933655,687.987061 382.823303,681.091614 365.349304,674.188721 
	C347.894043,667.533203 330.802429,660.885132 313.348572,654.222839 
	C298.556244,648.590698 284.126068,642.972778 269.341766,637.314697 
	C255.620880,632.105591 242.254120,626.936707 228.509399,621.709961 
	C216.458557,617.030457 204.785660,612.408813 192.313782,607.470825 
	C205.126175,602.524963 217.238083,597.849426 229.669403,592.994995 
	C245.796738,586.713867 261.604645,580.611694 277.712189,574.317993 
	C288.552185,570.251648 299.104126,566.407959 309.628204,562.489380 
	C315.215912,560.408813 320.755127,558.198242 326.650391,555.876709 
	C343.082520,549.486389 359.180450,543.265686 375.634216,536.929504 
	C391.856781,530.788269 407.723511,524.762512 423.838318,518.489990 
	C439.818573,512.201843 455.550781,506.160583 471.637909,500.012329 
	C488.163269,493.784271 504.333679,487.663177 520.757996,481.292419 
	C537.138184,474.832092 553.264465,468.621429 569.697937,462.229431 
	C575.577576,460.079590 581.186157,458.206757 586.714905,456.122284 
	C597.371643,452.104401 607.983337,447.966919 618.911011,443.706604 
	C634.911804,437.416443 650.615234,431.298706 666.653198,425.023743 
	C674.586670,422.123901 682.215881,419.461609 689.776428,416.616974 
	C697.987366,413.527649 706.134521,410.268768 714.645996,406.925964 
z"/>
<path fill="#FFFFFF" opacity="1.000000" stroke="none" 
	d="
M1346.200928,1050.731689 
	C1335.501465,1055.684570 1324.919556,1059.759766 1313.032593,1059.071045 
	C1299.816772,1058.305298 1287.451050,1055.257446 1276.295654,1047.180176 
	C1245.918823,1024.295532 1246.271484,978.308289 1270.073120,955.685120 
	C1275.155396,950.854370 1281.646606,947.419922 1287.764038,943.808289 
	C1290.083862,942.438660 1291.445068,941.297913 1291.066162,938.548828 
	C1290.908447,937.404419 1291.040527,936.220093 1291.040527,935.053894 
	C1291.040527,853.419128 1291.035889,771.784302 1291.066162,690.149536 
	C1291.067017,688.015320 1291.449219,685.881226 1292.197144,683.328369 
	C1306.934326,677.613586 1321.127808,672.317444 1336.026123,666.758301 
	C1336.026123,669.862854 1336.026123,671.841919 1336.026123,673.820984 
	C1336.026123,759.120422 1336.138916,844.420227 1335.845337,929.718689 
	C1335.817017,937.931641 1336.654419,943.678040 1345.422852,946.992737 
	C1350.776489,949.016541 1355.143799,953.649841 1359.954102,957.111084 
	C1363.339600,963.149536 1367.006104,969.053711 1369.985840,975.286194 
	C1371.359497,978.159485 1371.839111,981.660767 1371.941406,984.902100 
	C1372.204224,993.221802 1371.816406,1001.562073 1372.075928,1009.881958 
	C1372.539917,1024.755249 1364.380127,1035.169434 1354.444214,1044.653931 
	C1352.074341,1046.916138 1349.098755,1048.543823 1346.200928,1050.731689 
z"/>
<path fill="#CCDFEF" opacity="1.000000" stroke="none" 
	d="
M1360.134766,956.755554 
	C1355.143799,953.649841 1350.776489,949.016541 1345.422852,946.992737 
	C1336.654419,943.678040 1335.817017,937.931641 1335.845337,929.718689 
	C1336.138916,844.420227 1336.026123,759.120422 1336.026123,673.820984 
	C1336.026123,671.841919 1336.026123,669.862854 1336.026123,666.758301 
	C1321.127808,672.317444 1306.934326,677.613586 1292.365723,682.945557 
	C1291.992188,669.992737 1292.064087,657.003357 1291.927246,644.016235 
	C1291.903931,641.797485 1290.988159,639.588196 1290.178955,637.104248 
	C1299.518433,632.919800 1309.120728,628.895508 1318.819336,625.118347 
	C1331.931030,620.012024 1345.116577,615.095459 1358.643188,610.054810 
	C1360.009033,612.266846 1361.848389,614.515015 1361.865845,616.777222 
	C1362.068359,642.910339 1361.994995,669.045471 1361.994995,695.180115 
	C1361.994995,779.743103 1362.009521,864.306152 1361.924561,948.869080 
	C1361.921997,951.379944 1360.875366,953.889709 1360.134766,956.755554 
z"/>
<path fill="#FEFEFF" opacity="1.000000" stroke="none" 
	d="
M670.413574,1176.102295 
	C653.924377,1173.806519 637.862244,1171.458374 621.393188,1169.149048 
	C613.868469,1167.695312 606.750732,1166.202881 599.201599,1164.619995 
	C599.201599,1162.643921 599.201599,1160.847412 599.201599,1159.050903 
	C599.201538,1135.296387 598.661987,1111.525635 599.378906,1087.792847 
	C599.914551,1070.061035 588.117188,1059.746094 572.376282,1061.126831 
	C570.891479,1061.257202 569.388306,1061.177368 567.438538,1061.294800 
	C555.545654,1061.394531 544.107910,1061.394531 532.123657,1061.394531 
	C532.123657,1056.546143 532.123657,1052.429199 532.123657,1048.312256 
	C532.123718,1041.320435 532.469727,1034.307495 532.041321,1027.342041 
	C531.427124,1017.356445 533.150452,1009.810913 541.629883,1002.075684 
	C564.980652,980.774780 555.718262,937.829224 522.003296,928.893433 
	C513.686340,928.687012 505.823853,927.286438 498.587341,928.826721 
	C480.662720,932.642029 469.367981,944.189758 465.911011,962.346313 
	C462.349731,981.050537 468.365051,996.488037 483.731842,1007.882935 
	C486.486145,1009.925293 487.510406,1011.894287 487.473999,1015.215515 
	C487.315247,1029.697144 487.364380,1044.181519 487.420166,1058.664795 
	C487.456024,1067.981323 487.195862,1077.329468 487.874969,1086.604492 
	C488.529419,1095.542236 493.721649,1102.192993 502.277985,1104.446411 
	C508.535889,1106.094482 515.397278,1105.450928 521.989624,1105.828857 
	C532.726257,1105.828857 543.462891,1105.828857 554.405273,1105.828857 
	C554.545288,1107.459229 554.698608,1108.419800 554.699646,1109.380493 
	C554.714966,1123.804321 554.710266,1138.228027 554.710266,1154.191162 
	C541.207642,1149.556152 528.491638,1145.191162 515.392090,1140.870117 
	C499.561890,1132.995728 484.115204,1125.077393 468.327576,1117.102173 
	C454.065002,1107.454224 440.988159,1096.944336 431.741425,1082.486694 
	C424.485352,1071.141479 420.199036,1058.949707 420.248962,1045.175537 
	C420.439148,992.695129 420.323944,940.213562 420.322815,887.732483 
	C420.322784,886.102783 420.322815,884.473083 420.322815,882.181580 
	C429.725861,882.181580 438.657562,882.085022 447.581146,882.309998 
	C448.636230,882.336548 449.865845,883.976562 450.642914,885.120972 
	C456.046112,893.078247 463.031982,898.953491 472.923035,902.225830 
	C478.325165,903.231812 483.104706,904.838196 487.797180,904.614929 
	C514.351501,903.351318 535.296448,883.149353 531.990967,854.222778 
	C528.303650,821.955322 493.456940,809.878601 472.998291,818.034180 
	C463.600739,820.325500 456.787048,826.261963 451.446198,833.926819 
	C449.591797,836.588135 447.751343,837.625793 444.553955,837.533203 
	C436.756805,837.307617 428.948730,837.459778 420.736938,837.459778 
	C420.736938,806.078491 420.736938,775.116882 420.736938,743.465332 
	C438.190796,750.084351 455.216125,756.540894 472.859650,763.270630 
	C493.279510,771.057373 513.081177,778.570923 533.124146,786.350830 
	C556.882690,795.578308 580.399963,804.539307 604.188660,813.696167 
	C624.261902,821.423035 644.063721,828.954163 664.140015,836.683411 
	C681.277649,843.249878 698.140747,849.618164 715.258606,856.234070 
	C732.917236,863.053711 750.321045,869.625793 768.001709,876.454529 
	C768.740906,876.895264 769.203186,877.079224 769.665466,877.263367 
	C775.303162,879.509827 780.904785,879.574768 786.611816,877.347717 
	C810.060791,868.197571 833.538940,859.122070 857.383179,850.001587 
	C888.164551,838.281433 918.568970,826.578918 949.333130,814.820251 
	C960.088318,810.809143 970.505188,806.909302 980.874512,802.886963 
	C999.596802,795.624573 1018.290710,788.288940 1037.369385,780.960571 
	C1044.730347,778.276184 1051.736084,775.660339 1058.703247,772.945618 
	C1078.161743,765.363708 1097.604248,757.740784 1117.052979,750.134033 
	C1123.114380,748.069519 1129.175781,746.005005 1136.026001,743.671814 
	C1136.026001,746.566772 1136.026001,748.681702 1136.026001,750.796570 
	C1136.026001,847.421936 1135.796387,944.048218 1136.206055,1040.671875 
	C1136.295288,1061.748169 1129.618774,1079.333862 1115.238770,1094.717896 
	C1102.271973,1108.445557 1087.017822,1118.596069 1070.606934,1126.977783 
	C1060.444458,1132.168213 1049.845703,1136.504517 1039.201172,1141.449219 
	C1015.565369,1148.533325 992.177673,1155.413818 968.769653,1162.224243 
	C965.752869,1163.101807 962.630371,1163.615845 959.266785,1164.521729 
	C946.219482,1167.004028 933.468445,1169.298584 920.699890,1171.491699 
	C918.137512,1171.931763 915.508972,1171.986450 912.215393,1172.281006 
	C912.215393,1166.405518 912.215332,1161.117798 912.215332,1155.830200 
	C912.215393,1148.167236 912.376160,1140.499512 912.147156,1132.843384 
	C912.034424,1129.072754 913.399963,1127.967529 917.074829,1128.022583 
	C928.732788,1128.196899 940.395569,1128.055054 952.989014,1128.054688 
	C969.252258,1128.077881 984.616272,1127.456055 999.903625,1128.271362 
	C1013.773438,1129.010986 1024.532715,1117.631348 1024.296875,1104.091919 
	C1023.693176,1069.441406 1024.091919,1034.773315 1024.108643,1000.112305 
	C1024.109619,998.196167 1024.282227,996.280212 1024.395630,993.937012 
	C1036.017212,993.937012 1047.001953,993.937012 1058.452637,993.991333 
	C1061.912964,994.055969 1064.907715,994.098999 1067.901855,994.070984 
	C1081.896851,993.939819 1091.076050,984.871582 1091.107300,971.016235 
	C1091.156982,949.055603 1091.270142,927.093201 1091.015381,905.135498 
	C1090.956299,900.044434 1092.234253,896.594849 1096.980957,894.394104 
	C1098.870850,893.517944 1100.478271,891.854858 1101.962402,890.308167 
	C1120.427734,871.063232 1114.333008,838.443176 1097.003784,825.373230 
	C1085.168213,816.446777 1072.543335,812.608459 1057.605591,816.911804 
	C1039.252808,821.783752 1028.721924,834.057068 1025.343628,851.683289 
	C1021.838013,869.974426 1027.766846,885.380005 1043.248291,896.675415 
	C1045.044678,897.985962 1046.726562,900.793579 1046.774048,902.944336 
	C1047.085938,917.091736 1046.830811,931.250610 1047.007446,945.402710 
	C1047.051758,948.951477 1045.886597,949.959351 1042.429199,949.910889 
	C1029.442993,949.729065 1016.423828,950.356262 1003.472351,949.656311 
	C990.352478,948.947205 979.370117,960.085205 979.612854,973.230530 
	C980.258118,1008.188049 979.750244,1043.165894 979.933472,1078.134277 
	C979.958008,1082.814453 978.510132,1084.180664 973.957031,1083.990967 
	C966.647949,1083.686523 959.313232,1083.999390 951.989319,1084.051392 
	C930.958496,1083.998779 909.925659,1083.787476 888.898682,1084.046753 
	C885.308594,1084.091187 881.743347,1086.148071 877.929932,1087.554688 
	C870.996033,1091.629883 867.943298,1097.572144 867.920959,1105.072388 
	C867.852905,1127.896362 867.861511,1150.720703 867.940125,1173.544678 
	C867.950562,1176.584351 867.489746,1178.814087 863.882019,1179.000977 
	C851.298218,1179.652588 838.716248,1180.338135 826.132385,1180.988525 
	C825.328003,1181.030151 824.513916,1180.884766 823.363525,1180.801758 
	C823.363525,1141.087769 823.363525,1101.519653 823.363525,1061.053467 
	C840.899780,1061.053467 858.481201,1061.053467 876.993286,1061.064941 
	C881.083923,1061.089233 884.278870,1060.802856 887.398010,1061.166382 
	C900.796082,1062.728394 912.672241,1051.989746 912.437805,1036.287354 
	C911.814575,994.547729 912.227051,952.792542 912.227600,911.043579 
	C912.227600,909.128052 912.227539,907.212524 912.227539,905.382751 
	C916.602295,904.340576 919.138855,905.052490 921.378845,908.489380 
	C926.315186,916.063354 933.022156,921.626343 942.320312,924.196899 
	C959.282043,929.883118 974.234924,926.404724 987.308716,915.234131 
	C1001.123413,903.430481 1004.687317,888.126709 1000.475159,870.926270 
	C994.066223,844.754456 965.520386,830.389954 940.601807,840.780762 
	C932.009888,844.163879 925.722107,849.799805 920.452576,856.850891 
	C919.302673,858.389648 916.918762,859.791016 915.046082,859.868347 
	C907.107483,860.195862 899.147034,860.044434 891.195251,859.981689 
	C885.527039,859.937012 880.429077,861.463867 875.998535,865.057495 
	C870.821289,869.193848 867.848450,874.397095 867.878113,881.196350 
	C867.935974,894.485962 867.896362,907.775940 867.897156,921.065796 
	C867.897278,922.846313 867.897156,924.626831 867.897156,926.958008 
	C858.418091,926.958008 849.498169,927.053528 840.585815,926.834961 
	C839.495178,926.808105 838.416687,925.129089 837.382263,924.162659 
	C832.459595,919.563721 827.554138,914.946411 822.014282,910.060120 
	C803.082886,900.195801 778.622131,905.105225 765.670898,920.966675 
	C751.958313,937.760742 752.160645,961.398438 766.162354,978.375183 
	C778.844238,993.751709 804.033203,998.236938 822.108093,988.337219 
	C827.003601,983.992371 832.178162,979.912476 836.667297,975.182007 
	C838.670654,973.070923 840.238464,971.752747 843.234009,971.820129 
	C851.187744,971.999023 859.148193,971.880798 867.499390,971.880798 
	C867.499390,986.802246 867.499390,1001.339844 867.499390,1016.736633 
	C851.695801,1016.736633 835.818970,1016.736633 819.477783,1016.796143 
	C813.349670,1016.807007 807.685059,1016.669800 802.022400,1016.727051 
	C787.183044,1016.877014 778.160889,1025.954346 778.137024,1040.893799 
	C778.082458,1075.055054 778.118530,1109.216187 778.118042,1143.377441 
	C778.117859,1156.013672 778.118042,1168.649902 778.118042,1182.022095 
	C773.113586,1182.022095 768.512207,1182.022095 763.446533,1182.091553 
	C753.512756,1182.161011 744.043335,1182.161011 733.687805,1182.161011 
	C733.687805,1178.810425 733.687805,1176.732544 733.687805,1174.654785 
	C733.688171,1116.179077 733.692200,1057.703369 733.683899,999.227600 
	C733.682861,992.319702 733.408264,985.262024 728.259644,980.049866 
	C725.341919,977.096130 721.287598,975.265198 717.372192,972.969788 
	C714.251587,972.632507 711.505920,971.943787 708.756042,971.926453 
	C692.478699,971.823730 676.200439,971.876892 658.995605,971.891602 
	C646.139893,971.905640 634.211060,971.905640 621.798218,971.905640 
	C621.798218,969.410767 621.798218,967.616455 621.798279,965.822144 
	C621.798462,953.340088 621.967712,940.854614 621.713257,928.377747 
	C621.615601,923.588623 622.015869,919.787903 626.957275,917.292786 
	C629.496460,916.010620 631.472473,913.373169 633.351379,911.062317 
	C645.194031,896.497131 647.460205,880.312500 639.512024,863.478638 
	C631.596497,846.714111 617.937988,837.823608 598.572998,837.758789 
	C580.246338,838.036438 567.367249,846.521973 559.441406,862.261658 
	C548.961426,883.073547 555.383362,906.801575 574.282166,919.600647 
	C575.771301,920.609131 576.837219,923.328369 576.852112,925.262085 
	C577.028748,948.244751 576.884644,971.229614 577.002869,994.213013 
	C577.069336,1007.132507 586.612915,1016.491150 599.420471,1016.298096 
	C607.611816,1016.483154 615.406555,1016.645203 623.200256,1016.603943 
	C635.129456,1016.540833 647.057861,1016.337524 658.986633,1016.193726 
	C666.610718,1016.252808 674.234863,1016.315369 681.858948,1016.368713 
	C683.978882,1016.383545 686.098938,1016.370911 688.551147,1016.370911 
	C688.551147,1070.423950 688.551147,1123.865723 688.551147,1177.896362 
	C682.566284,1177.272339 676.703491,1176.661011 670.413574,1176.102295 
z"/>
<path fill="#A3C4E0" opacity="1.000000" stroke="none" 
	d="
M1117.035889,749.653198 
	C1097.604248,757.740784 1078.161743,765.363708 1058.703247,772.945618 
	C1051.736084,775.660339 1044.730347,778.276184 1037.371094,780.493408 
	C1036.667725,764.704651 1036.335449,749.359680 1036.003174,734.014648 
	C1050.619385,728.308350 1065.217163,722.554016 1079.857910,716.911377 
	C1091.246948,712.521912 1102.689575,708.271667 1114.475464,703.916321 
	C1115.561768,705.734680 1116.877808,707.587830 1116.904175,709.459167 
	C1117.090820,722.694824 1117.012573,735.934204 1117.035889,749.653198 
z"/>
<path fill="#94BBDB" opacity="1.000000" stroke="none" 
	d="
M951.992676,1084.494385 
	C959.313232,1083.999390 966.647949,1083.686523 973.957031,1083.990967 
	C978.510132,1084.180664 979.958008,1082.814453 979.933472,1078.134277 
	C979.750244,1043.165894 980.258118,1008.188049 979.612854,973.230530 
	C979.370117,960.085205 990.352478,948.947205 1003.472351,949.656311 
	C1016.423828,950.356262 1029.442993,949.729065 1042.429199,949.910889 
	C1045.886597,949.959351 1047.051758,948.951477 1047.007446,945.402710 
	C1046.830811,931.250610 1047.085938,917.091736 1046.774048,902.944336 
	C1046.726562,900.793579 1045.044678,897.985962 1043.248291,896.675415 
	C1027.766846,885.380005 1021.838013,869.974426 1025.343628,851.683289 
	C1028.721924,834.057068 1039.252808,821.783752 1057.606934,817.391602 
	C1057.990967,876.541199 1057.988892,935.239075 1057.986694,993.937012 
	C1047.001953,993.937012 1036.017212,993.937012 1024.395630,993.937012 
	C1024.282227,996.280212 1024.109619,998.196167 1024.108643,1000.112305 
	C1024.091919,1034.773315 1023.693176,1069.441406 1024.296875,1104.091919 
	C1024.532715,1117.631348 1013.773438,1129.010986 999.903625,1128.271362 
	C984.616272,1127.456055 969.252258,1128.077881 953.455261,1128.010742 
	C952.855225,1119.499268 952.760010,1111.050049 952.574829,1102.602661 
	C952.445740,1096.712891 952.193359,1090.825806 951.992676,1084.494385 
z"/>
<path fill="#82AFD5" opacity="1.000000" stroke="none" 
	d="
M941.999390,923.994629 
	C933.022156,921.626343 926.315186,916.063354 921.378845,908.489380 
	C919.138855,905.052490 916.602295,904.340576 912.227539,905.382751 
	C912.227539,907.212524 912.227600,909.128052 912.227600,911.043579 
	C912.227051,952.792542 911.814575,994.547729 912.437805,1036.287354 
	C912.672241,1051.989746 900.796082,1062.728394 887.398010,1061.166382 
	C884.278870,1060.802856 881.083923,1061.089233 877.458801,1061.009766 
	C876.995850,998.207336 877.007141,935.471802 876.962952,872.736267 
	C876.961304,870.449341 876.414307,868.162842 876.059937,865.466797 
	C880.429077,861.463867 885.527039,859.937012 891.195251,859.981689 
	C899.147034,860.044434 907.107483,860.195862 915.046082,859.868347 
	C916.918762,859.791016 919.302673,858.389648 920.452576,856.850891 
	C925.722107,849.799805 932.009888,844.163879 940.656982,841.221985 
	C941.385193,844.045105 941.955688,846.486572 941.962036,848.929565 
	C942.026978,873.951111 942.000366,898.972900 941.999390,923.994629 
z"/>
<path fill="#70A3CE" opacity="1.000000" stroke="none" 
	d="
M822.076538,987.841003 
	C804.033203,998.236938 778.844238,993.751709 766.162354,978.375183 
	C752.160645,961.398438 751.958313,937.760742 765.670898,920.966675 
	C778.622131,905.105225 803.082886,900.195801 821.685425,909.989441 
	C822.004822,935.911133 822.024902,961.627991 822.076538,987.841003 
z"/>
<path fill="#446682" opacity="1.000000" stroke="none" 
	d="
M472.998718,818.500610 
	C493.456940,809.878601 528.303650,821.955322 531.990967,854.222778 
	C535.296448,883.149353 514.351501,903.351318 487.797180,904.614929 
	C483.104706,904.838196 478.325165,903.231812 473.294861,902.224854 
	C473.002319,874.308594 473.000732,846.637756 472.998718,818.500610 
z"/>
<path fill="#446682" opacity="1.000000" stroke="none" 
	d="
M532.882874,786.084412 
	C513.081177,778.570923 493.279510,771.057373 473.234741,763.285889 
	C473.327362,760.935120 473.939789,758.844299 473.953705,756.749451 
	C474.041779,743.501587 473.997284,730.252747 473.995178,716.540771 
	C491.299988,722.661865 508.605927,729.247131 525.912720,735.830078 
	C528.818665,736.935547 531.728638,738.030579 534.838501,739.758545 
	C534.696289,742.654846 534.075623,744.920593 534.054932,747.191711 
	C533.952148,758.449524 534.054871,769.709229 533.957458,780.967102 
	C533.942688,782.675842 533.257751,784.378784 532.882874,786.084412 
z"/>
<path fill="#446682" opacity="1.000000" stroke="none" 
	d="
M521.992249,1105.371338 
	C515.397278,1105.450928 508.535889,1106.094482 502.277985,1104.446411 
	C493.721649,1102.192993 488.529419,1095.542236 487.874969,1086.604492 
	C487.195862,1077.329468 487.456024,1067.981323 487.420166,1058.664795 
	C487.364380,1044.181519 487.315247,1029.697144 487.473999,1015.215515 
	C487.510406,1011.894287 486.486145,1009.925293 483.731842,1007.882935 
	C468.365051,996.488037 462.349731,981.050537 465.911011,962.346313 
	C469.367981,944.189758 480.662720,932.642029 498.587341,928.826721 
	C505.823853,927.286438 513.686340,928.687012 521.628540,928.916626 
	C521.993713,987.694031 521.994324,1046.303955 521.992249,1105.371338 
z"/>
<path fill="#5984A8" opacity="1.000000" stroke="none" 
	d="
M599.022522,837.824646 
	C617.937988,837.823608 631.596497,846.714111 639.512024,863.478638 
	C647.460205,880.312500 645.194031,896.497131 633.351379,911.062317 
	C631.472473,913.373169 629.496460,916.010620 626.957275,917.292786 
	C622.015869,919.787903 621.615601,923.588623 621.713257,928.377747 
	C621.967712,940.854614 621.798462,953.340088 621.798279,965.822144 
	C621.798218,967.616455 621.798218,969.410767 621.798218,971.905640 
	C634.211060,971.905640 646.139893,971.905640 658.532959,971.975220 
	C658.996338,986.488953 658.995483,1000.933228 658.990601,1015.785583 
	C647.057861,1016.337524 635.129456,1016.540833 623.200256,1016.603943 
	C615.406555,1016.645203 607.611816,1016.483154 599.415649,1015.814453 
	C599.016785,956.085999 599.019653,896.955322 599.022522,837.824646 
z"/>
<path fill="#82AFD5" opacity="1.000000" stroke="none" 
	d="
M948.973450,814.876404 
	C918.568970,826.578918 888.164551,838.281433 857.381042,849.531372 
	C857.001343,835.822815 857.043640,822.566528 856.955688,809.311218 
	C856.941833,807.214355 856.340271,805.121521 856.010437,803.026794 
	C869.467346,797.760864 882.898315,792.427124 896.387756,787.245850 
	C913.301208,780.749512 930.262695,774.378113 947.742310,768.291138 
	C948.520813,770.251770 948.962769,771.873291 948.968262,773.496277 
	C949.015015,787.289490 948.982300,801.083008 948.973450,814.876404 
z"/>
<path fill="#94BBDB" opacity="1.000000" stroke="none" 
	d="
M949.333130,814.820251 
	C948.982300,801.083008 949.015015,787.289490 948.968262,773.496277 
	C948.962769,771.873291 948.520813,770.251770 948.115234,768.228882 
	C959.516052,763.265930 971.054626,758.630310 982.656372,754.158752 
	C1000.168274,747.409302 1017.724243,740.774353 1035.632324,734.052734 
	C1036.335449,749.359680 1036.667725,764.704651 1036.998291,780.516785 
	C1018.290710,788.288940 999.596802,795.624573 980.874512,802.886963 
	C970.505188,806.909302 960.088318,810.809143 949.333130,814.820251 
z"/>
<path fill="#70A3CE" opacity="1.000000" stroke="none" 
	d="
M855.640930,803.057373 
	C856.340271,805.121521 856.941833,807.214355 856.955688,809.311218 
	C857.043640,822.566528 857.001343,835.822815 857.004150,849.548950 
	C833.538940,859.122070 810.060791,868.197571 786.611816,877.347717 
	C780.904785,879.574768 775.303162,879.509827 769.665466,877.263367 
	C769.203186,877.079224 768.740906,876.895264 768.364990,876.235596 
	C768.966858,873.952332 769.908752,872.149536 769.929504,870.336121 
	C770.084961,856.807495 770.058044,843.276794 770.088318,829.746704 
	C776.437500,832.995850 782.306091,831.149902 788.502930,828.707458 
	C810.679871,819.966614 833.003357,811.597656 855.640930,803.057373 
z"/>
<path fill="#527A9C" opacity="1.000000" stroke="none" 
	d="
M533.124146,786.350830 
	C533.257751,784.378784 533.942688,782.675842 533.957458,780.967102 
	C534.054871,769.709229 533.952148,758.449524 534.054932,747.191711 
	C534.075623,744.920593 534.696289,742.654846 535.142334,739.938232 
	C557.978577,748.181885 580.712830,756.874023 603.724609,766.258789 
	C603.973816,782.467712 603.945496,797.984070 603.917236,813.500366 
	C580.399963,804.539307 556.882690,795.578308 533.124146,786.350830 
z"/>
<path fill="#5984A8" opacity="1.000000" stroke="none" 
	d="
M604.188660,813.696167 
	C603.945496,797.984070 603.973816,782.467712 603.999023,766.483887 
	C623.800232,773.552917 643.604492,781.089539 663.706116,789.244141 
	C664.151733,792.627441 664.375732,795.391113 664.433105,798.158325 
	C664.567261,804.632507 664.764038,811.110474 664.667542,817.582886 
	C664.573547,823.886292 664.146423,830.184631 663.865540,836.485229 
	C644.063721,828.954163 624.261902,821.423035 604.188660,813.696167 
z"/>
<path fill="#6698C1" opacity="1.000000" stroke="none" 
	d="
M769.821777,829.513916 
	C770.058044,843.276794 770.084961,856.807495 769.929504,870.336121 
	C769.908752,872.149536 768.966858,873.952332 768.088135,875.979004 
	C750.321045,869.625793 732.917236,863.053711 715.316528,855.820679 
	C715.413086,853.046326 715.948303,850.934448 715.960632,848.819458 
	C716.038025,835.552490 715.998840,822.284790 715.998291,809.017334 
	C730.763306,814.612793 745.527710,820.209839 760.293823,825.802429 
	C763.377747,826.970459 766.467957,828.121948 769.821777,829.513916 
z"/>
<path fill="#608FB6" opacity="1.000000" stroke="none" 
	d="
M715.708496,808.805542 
	C715.998840,822.284790 716.038025,835.552490 715.960632,848.819458 
	C715.948303,850.934448 715.413086,853.046326 715.061707,855.573120 
	C698.140747,849.618164 681.277649,843.249878 664.140015,836.683350 
	C664.146423,830.184631 664.573547,823.886292 664.667542,817.582886 
	C664.764038,811.110474 664.567261,804.632507 664.433105,798.158325 
	C664.375732,795.391113 664.151733,792.627441 664.000183,789.450623 
	C681.137451,795.557312 698.278076,802.075500 715.708496,808.805542 
z"/>
<path fill="#A3C4E0" opacity="1.000000" stroke="none" 
	d="
M1058.452637,993.991333 
	C1057.988892,935.239075 1057.990967,876.541199 1057.991943,817.363464 
	C1072.543335,812.608459 1085.168213,816.446777 1097.003784,825.373230 
	C1114.333008,838.443176 1120.427734,871.063232 1101.962402,890.308167 
	C1100.478271,891.854858 1098.870850,893.517944 1096.980957,894.394104 
	C1092.234253,896.594849 1090.956299,900.044434 1091.015381,905.135498 
	C1091.270142,927.093201 1091.156982,949.055603 1091.107300,971.016235 
	C1091.076050,984.871582 1081.896851,993.939819 1067.901855,994.070984 
	C1064.907715,994.098999 1061.912964,994.055969 1058.452637,993.991333 
z"/>
<path fill="#527A9C" opacity="1.000000" stroke="none" 
	d="
M598.572998,837.758789 
	C599.019653,896.955322 599.016785,956.085999 599.018677,1015.700317 
	C586.612915,1016.491150 577.069336,1007.132507 577.002869,994.213013 
	C576.884644,971.229614 577.028748,948.244751 576.852112,925.262085 
	C576.837219,923.328369 575.771301,920.609131 574.282166,919.600647 
	C555.383362,906.801575 548.961426,883.073547 559.441406,862.261658 
	C567.367249,846.521973 580.246338,838.036438 598.572998,837.758789 
z"/>
<path fill="#94BBDB" opacity="1.000000" stroke="none" 
	d="
M942.320312,924.196899 
	C942.000366,898.972900 942.026978,873.951111 941.962036,848.929565 
	C941.955688,846.486572 941.385193,844.045105 941.021362,841.161743 
	C965.520386,830.389954 994.066223,844.754456 1000.475159,870.926270 
	C1004.687317,888.126709 1001.123413,903.430481 987.308716,915.234131 
	C974.234924,926.404724 959.282043,929.883118 942.320312,924.196899 
z"/>
</svg>